<?xml version="1.0"?>
<svg xmlns="http://www.w3.org/2000/svg" version="1.1" width="600px" height="600px" viewBox="0 0 200 200" style="overflow:hidden!important;">
  <defs id="SvgjsDefs1007">
    <radialGradient id="SvgjsRadialGradient2770" cx="100" cy="113" r="40" gradientUnits="userSpaceOnUse" class="svga-on-canvas-facehighlight-gradient-single-0">
      <stop id="SvgjsStop2771" stop-opacity="0.5" stop-color="#fff4f3" offset="0"/>
      <stop id="SvgjsStop2772" stop-opacity="0" stop-color="#f3d4cf" offset="0.9"/>
    </radialGradient>
    <radialGradient id="SvgjsRadialGradient2774" cx="100" cy="57" r="36" gradientUnits="userSpaceOnUse" class="svga-on-canvas-facehighlight-gradient-single-1">
      <stop id="SvgjsStop2775" stop-opacity="0.5" stop-color="#fff4f3" offset="0"/>
      <stop id="SvgjsStop2776" stop-opacity="0" stop-color="#f3d4cf" offset="0.9"/>
    </radialGradient>
    <linearGradient id="SvgjsLinearGradient2899" x1="100" y1="141" x2="100" y2="138" gradientUnits="userSpaceOnUse" class="svga-on-canvas-mouth-gradient-single-0">
      <stop id="SvgjsStop2900" stop-opacity="1" stop-color="#ebc3bd" offset="0.1"/>
      <stop id="SvgjsStop2901" stop-opacity="1" stop-color="#e4b3ab" offset="1"/>
    </linearGradient>
    <radialGradient id="SvgjsRadialGradient2974" cx="100" cy="100" r="150" gradientUnits="userSpaceOnUse" class="svga-on-canvas-backs-gradient-single-1">
      <stop id="SvgjsStop2975" stop-opacity="0" stop-color="#ecf0f1" offset="0"/>
      <stop id="SvgjsStop2976" stop-opacity="1" stop-color="#c6dce2" offset="0.2"/>
      <stop id="SvgjsStop2977" stop-opacity="0" stop-color="#c6dce2" offset="1"/>
    </radialGradient>
    <linearGradient id="SvgjsLinearGradient3874" x1="99.98" y1="171.27" x2="99.98" y2="136.351" gradientUnits="userSpaceOnUse" class="svga-on-canvas-chinshadow-gradient-single-0">
      <stop id="SvgjsStop3875" stop-opacity="0.8" stop-color="#e4b3ab" offset="0"/>
      <stop id="SvgjsStop3876" stop-opacity="1" stop-color="#c5796d" offset="0.7"/>
    </linearGradient>
    <radialGradient id="SvgjsRadialGradient4203" cx="124.93" cy="86.966" r="13.199" gradientTransform="matrix(-1.0172 0 0 1.0172 202.565 -1.469)" gradientUnits="userSpaceOnUse" class="svga-on-canvas-eyesback-gradient-left-0">
      <stop id="SvgjsStop4204" stop-opacity="1" stop-color="#ffffff" offset="0"/>
      <stop id="SvgjsStop4205" stop-opacity="1" stop-color="#fdfefe" offset="0.544"/>
      <stop id="SvgjsStop4206" stop-opacity="1" stop-color="#f6f8f9" offset="0.74"/>
      <stop id="SvgjsStop4207" stop-opacity="1" stop-color="#eaeff2" offset="0.879"/>
      <stop id="SvgjsStop4208" stop-opacity="1" stop-color="#d9e3e8" offset="0.992"/>
      <stop id="SvgjsStop4209" stop-opacity="1" stop-color="#d8e2e7" offset="1"/>
    </radialGradient>
    <radialGradient id="SvgjsRadialGradient4211" cx="124.93" cy="86.966" r="13.199" gradientTransform="matrix(1.0172 0 0 1.0172 -2.565 -1.469)" gradientUnits="userSpaceOnUse" class="svga-on-canvas-eyesback-gradient-right-0">
      <stop id="SvgjsStop4212" stop-opacity="1" stop-color="#ffffff" offset="0"/>
      <stop id="SvgjsStop4213" stop-opacity="1" stop-color="#fdfefe" offset="0.544"/>
      <stop id="SvgjsStop4214" stop-opacity="1" stop-color="#f6f8f9" offset="0.74"/>
      <stop id="SvgjsStop4215" stop-opacity="1" stop-color="#eaeff2" offset="0.879"/>
      <stop id="SvgjsStop4216" stop-opacity="1" stop-color="#d9e3e8" offset="0.992"/>
      <stop id="SvgjsStop4217" stop-opacity="1" stop-color="#d8e2e7" offset="1"/>
    </radialGradient>
    <radialGradient id="SvgjsRadialGradient4219" cx="124.93" cy="86.966" r="13.199" gradientTransform="matrix(-1.0172 0 0 1.0172 202.565 -1.469)" gradientUnits="userSpaceOnUse" class="svga-on-canvas-eyesfront-gradient-left-0">
      <stop id="SvgjsStop4220" stop-opacity="1" stop-color="#ffffff" offset="0"/>
      <stop id="SvgjsStop4221" stop-opacity="1" stop-color="#fdfefe" offset="0.544"/>
      <stop id="SvgjsStop4222" stop-opacity="1" stop-color="#f6f8f9" offset="0.74"/>
      <stop id="SvgjsStop4223" stop-opacity="1" stop-color="#eaeff2" offset="0.879"/>
      <stop id="SvgjsStop4224" stop-opacity="1" stop-color="#d9e3e8" offset="0.992"/>
      <stop id="SvgjsStop4225" stop-opacity="1" stop-color="#d8e2e7" offset="1"/>
    </radialGradient>
    <radialGradient id="SvgjsRadialGradient4229" cx="122.469" cy="85.751" fx="134.713" fy="85.785" r="17.414" gradientTransform="matrix(0.9998 0.0208 0.0166 -0.7998 -46.3384 151.7877)" gradientUnits="userSpaceOnUse" class="svga-on-canvas-eyesfront-gradient-left-3">
      <stop id="SvgjsStop4230" stop-opacity="1" stop-color="#e4b3ab" offset="0"/>
      <stop id="SvgjsStop4231" stop-opacity="0.3" stop-color="#e4b3ab" offset="0.7"/>
      <stop id="SvgjsStop4232" stop-opacity="0" stop-color="#f3d4cf" offset="1"/>
    </radialGradient>
    <radialGradient id="SvgjsRadialGradient4234" cx="71.413" cy="110.215" r="30.925" gradientTransform="matrix(0.875 -0.0456 0.0459 0.8698 2.9059 16.5931)" gradientUnits="userSpaceOnUse" class="svga-on-canvas-eyesfront-gradient-left-4">
      <stop id="SvgjsStop4235" stop-opacity="0" stop-color="#000000" offset="0.95"/>
      <stop id="SvgjsStop4236" stop-opacity="0.3" stop-color="#000000" offset="1"/>
    </radialGradient>
    <radialGradient id="SvgjsRadialGradient4240" cx="124.93" cy="86.966" r="13.199" gradientTransform="matrix(1.0172 0 0 1.0172 -2.565 -1.469)" gradientUnits="userSpaceOnUse" class="svga-on-canvas-eyesfront-gradient-right-0">
      <stop id="SvgjsStop4241" stop-opacity="1" stop-color="#ffffff" offset="0"/>
      <stop id="SvgjsStop4242" stop-opacity="1" stop-color="#fdfefe" offset="0.544"/>
      <stop id="SvgjsStop4243" stop-opacity="1" stop-color="#f6f8f9" offset="0.74"/>
      <stop id="SvgjsStop4244" stop-opacity="1" stop-color="#eaeff2" offset="0.879"/>
      <stop id="SvgjsStop4245" stop-opacity="1" stop-color="#d9e3e8" offset="0.992"/>
      <stop id="SvgjsStop4246" stop-opacity="1" stop-color="#d8e2e7" offset="1"/>
    </radialGradient>
    <radialGradient id="SvgjsRadialGradient4250" cx="122.469" cy="85.751" fx="134.713" fy="85.785" r="17.414" gradientTransform="matrix(-0.9998 0.0208 -0.0166 -0.7998 246.3384 151.7877)" gradientUnits="userSpaceOnUse" class="svga-on-canvas-eyesfront-gradient-right-3">
      <stop id="SvgjsStop4251" stop-opacity="1" stop-color="#e4b3ab" offset="0"/>
      <stop id="SvgjsStop4252" stop-opacity="0.3" stop-color="#e4b3ab" offset="0.7"/>
      <stop id="SvgjsStop4253" stop-opacity="0" stop-color="#f3d4cf" offset="1"/>
    </radialGradient>
    <radialGradient id="SvgjsRadialGradient4255" cx="71.413" cy="110.215" r="30.925" gradientTransform="matrix(-0.875 -0.0456 -0.0459 0.8698 197.0941 16.5931)" gradientUnits="userSpaceOnUse" class="svga-on-canvas-eyesfront-gradient-right-4">
      <stop id="SvgjsStop4256" stop-opacity="0" stop-color="#000000" offset="0.95"/>
      <stop id="SvgjsStop4257" stop-opacity="0.3" stop-color="#000000" offset="1"/>
    </radialGradient>
    <radialGradient id="SvgjsRadialGradient4400" cx="-558.588" cy="-490.918" r="84.646" gradientTransform="matrix(0.096 -0.0248 0.0245 0.0961 140.5478 120.3577)" gradientUnits="userSpaceOnUse" class="svga-on-canvas-eyesiris-gradient-left-1">
      <stop id="SvgjsStop4401" stop-opacity="0.8" stop-color="#ffffff" offset="0"/>
      <stop id="SvgjsStop4402" stop-opacity="0" stop-color="#ffffff" offset="1"/>
    </radialGradient>
    <radialGradient id="SvgjsRadialGradient4404" cx="-565.337" cy="-492.691" r="84.644" gradientTransform="matrix(0.0991 8.856325e-004 -0.0011 0.0991 130.3774 136.3533)" gradientUnits="userSpaceOnUse" class="svga-on-canvas-eyesiris-gradient-left-2">
      <stop id="SvgjsStop4405" stop-opacity="0.8" stop-color="#ffffff" offset="0"/>
      <stop id="SvgjsStop4406" stop-opacity="0" stop-color="#ffffff" offset="1"/>
    </radialGradient>
    <linearGradient id="SvgjsLinearGradient4410" x1="122.283" y1="93.047" x2="123.61" y2="91.466" gradientTransform="matrix(1 0 0 1 -52 0)" gradientUnits="userSpaceOnUse" class="svga-on-canvas-eyesiris-gradient-left-5">
      <stop id="SvgjsStop4411" stop-opacity="1" stop-color="#ffffff" offset="0"/>
      <stop id="SvgjsStop4412" stop-opacity="0" stop-color="#ffffff" offset="1"/>
    </linearGradient>
    <linearGradient id="SvgjsLinearGradient4414" x1="127" y1="85" x2="125" y2="87" gradientTransform="matrix(1 0 0 1 -50 0)" gradientUnits="userSpaceOnUse" class="svga-on-canvas-eyesiris-gradient-left-6">
      <stop id="SvgjsStop4415" stop-opacity="1" stop-color="#ffffff" offset="0"/>
      <stop id="SvgjsStop4416" stop-opacity="0" stop-color="#ffffff" offset="1"/>
    </linearGradient>
    <linearGradient id="SvgjsLinearGradient4418" x1="130" y1="81" x2="126" y2="85" gradientTransform="matrix(1 0 0 1 -50 0)" gradientUnits="userSpaceOnUse" class="svga-on-canvas-eyesiris-gradient-left-7">
      <stop id="SvgjsStop4419" stop-opacity="1" stop-color="#ffffff" offset="0"/>
      <stop id="SvgjsStop4420" stop-opacity="0" stop-color="#ffffff" offset="1"/>
    </linearGradient>
    <radialGradient id="SvgjsRadialGradient4423" cx="-578.76" cy="-490.73" r="84.646" gradientTransform="matrix(0.096 -0.0248 0.0245 0.0961 192.4794 119.8404)" gradientUnits="userSpaceOnUse" class="svga-on-canvas-eyesiris-gradient-right-1">
      <stop id="SvgjsStop4424" stop-opacity="0.8" stop-color="#ffffff" offset="0"/>
      <stop id="SvgjsStop4425" stop-opacity="0" stop-color="#ffffff" offset="1"/>
    </radialGradient>
    <radialGradient id="SvgjsRadialGradient4427" cx="-584.778" cy="-487.329" r="84.644" gradientTransform="matrix(0.0991 8.856325e-004 -0.0011 0.0991 182.3104 135.839)" gradientUnits="userSpaceOnUse" class="svga-on-canvas-eyesiris-gradient-right-2">
      <stop id="SvgjsStop4428" stop-opacity="0.8" stop-color="#ffffff" offset="0"/>
      <stop id="SvgjsStop4429" stop-opacity="0" stop-color="#ffffff" offset="1"/>
    </radialGradient>
    <linearGradient id="SvgjsLinearGradient4433" x1="120.284" y1="93.047" x2="121.611" y2="91.467" gradientUnits="userSpaceOnUse" class="svga-on-canvas-eyesiris-gradient-right-5">
      <stop id="SvgjsStop4434" stop-opacity="1" stop-color="#ffffff" offset="0"/>
      <stop id="SvgjsStop4435" stop-opacity="0" stop-color="#ffffff" offset="1"/>
    </linearGradient>
    <linearGradient id="SvgjsLinearGradient4437" x1="127" y1="85" x2="125" y2="87" gradientUnits="userSpaceOnUse" class="svga-on-canvas-eyesiris-gradient-right-6">
      <stop id="SvgjsStop4438" stop-opacity="1" stop-color="#ffffff" offset="0"/>
      <stop id="SvgjsStop4439" stop-opacity="0" stop-color="#ffffff" offset="1"/>
    </linearGradient>
    <linearGradient id="SvgjsLinearGradient4441" x1="130" y1="81" x2="126" y2="85" gradientUnits="userSpaceOnUse" class="svga-on-canvas-eyesiris-gradient-right-7">
      <stop id="SvgjsStop4442" stop-opacity="1" stop-color="#ffffff" offset="0"/>
      <stop id="SvgjsStop4443" stop-opacity="0" stop-color="#ffffff" offset="1"/>
    </linearGradient>
  </defs>
  <g id="svga-group-wrapper">
    <g id="svga-group-backs-single"/>
    <g id="svga-group-humanwrap-move" transform="matrix(1,0,0,1,0,0)">
      <g id="svga-group-humanwrap" transform="matrix(1,0,0,1,0,0)">
        <g id="svga-group-hair-back-move" transform="matrix(1,0,0,1,0,0)">
          <g id="svga-group-hair-back" transform="matrix(1,0,0,1,0,0)">
            <path id="SvgjsPath3951" d="M160 24.999H40c0 0-1 193.284-1 199h123L160 24.999z" fill="#0c080c" stroke-width="none" opacity="1"/>
          </g>
        </g>
        <g id="svga-group-humanbody-single">
          <path id="SvgjsPath2777" d="M190.858 199.866c-6.008-10.158-13.474-11.973-19.628-13.936 -6.323-2.016-19.346-3.178-26.449-4.6 -6.86-1.373-23.153-5.789-23.339-13.488 -0.192-8.066 4.291-40.09 4.291-40.09H74.005c0 0 4.487 32.023 4.294 40.09 -0.184 7.699-16.48 12.115-23.341 13.488 -7.104 1.422-20.125 2.584-26.448 4.6 -6.156 1.963-13.624 3.777-19.632 13.936 -3.644 6.16-6.008 16.133-6.008 27.133h194C196.869 215.999 194.509 206.026 190.858 199.866z" fill="#f3d4cf" stroke-width="none" opacity="1" stroke="none"/>
          <path id="SvgjsPath2778" d="M121.442 167.843c2.495 10.929 18.165 13.698 26.293 15.325 21.909 4.379 33.772 5.134 42.297 19.539 2.903 4.916 5.459 15.864 5.962 24.153 1.835 0.291 0.531-17.432-5.136-26.994 -9.742-16.472-29.089-15.135-46.077-18.535C137.921 179.958 121.628 175.542 121.442 167.843L121.442 167.843zM78.558 167.843c-0.186 7.699-16.479 12.115-23.339 13.488 -16.988 3.4-36.335 2.063-46.077 18.535 -5.667 9.563-6.971 27.285-5.136 26.994 0.503-8.289 3.059-19.237 5.962-24.153 8.524-14.405 20.388-15.16 42.297-19.539C60.393 181.541 76.063 178.771 78.558 167.843L78.558 167.843z" fill="#fff4f3" stroke-width="none" opacity="1" stroke="none"/>
          <path id="SvgjsPath2779" d="M51.206 189.513c0 0 28.641 0.299 33.473 1.885 2.314 0.758 8.372 5.633 8.372 5.633s-6.556-3.17-8.658-3.758C79.51 191.909 51.206 189.513 51.206 189.513zM99.795 199.999c2.053-0.041 7.887-3.799 7.887-3.799s-5.574 2.059-7.342 2.16c-1.491 0.086-6.366-1.238-6.366-1.238S98.112 200.032 99.795 199.999zM117.008 192.757c6.75-1.818 29.786-3.23 29.786-3.23s-23.791-0.516-30.51 1.725c-2.252 0.752-7.562 5.16-7.562 5.16S114.786 193.354 117.008 192.757z" fill="#e4b3ab" stroke-width="none" opacity="1" stroke="none"/>
          <path id="SvgjsPath2780" d="M190.858 199.866c-9.741-16.471-29.122-15.142-46.077-18.535 -6.86-1.373-23.153-5.789-23.339-13.488 -0.192-8.066 4.291-40.09 4.291-40.09H74.005c0 0 4.487 32.023 4.294 40.09 -0.184 7.699-16.48 12.115-23.341 13.488 -7.104 1.422-20.125 2.584-26.448 4.6 -6.156 1.963-13.624 3.777-19.632 13.936 -3.644 6.16-6.008 16.133-6.008 27.133h194C196.869 215.999 194.509 206.026 190.858 199.866z" fill="none" stroke="#c5796d" stroke-width="1.5" opacity="1"/>
        </g>
        <g id="svga-group-chinshadow-single">
          <path id="SvgjsPath3873" d="M83.869 167.568c7.443 3.113 24.852 3.176 32.267 0 1.555-0.665 3.14-1.648 4.733-2.873 0.526-9.943 3.455-31.496 4.102-36.179l0.017-0.113H82.682c-2.727 0.202-5.355 0.438-7.833 0.709 0.778 5.658 3.493 25.843 4.016 35.462C80.559 165.857 82.236 166.886 83.869 167.568z" fill="url(#SvgjsLinearGradient3874)" opacity="1"/>
        </g>
        <g id="svga-group-clothes-single">
          <path id="SvgjsPath4465" d="M1.21 226.811c-0.09-1.096 0.089-6.144 0.169-7.69 1.305-24.199 9.403-29.321 42.489-39.116 15.99-4.732 20.453-6.269 26.144-18.359 1.614-3.43 3.009-6.393 6.011-7.444 15.289 8.429 28.472 8.16 47.416 1.143 3.516 0.491 4.597 4.978 5.414 8.217 5.254 20.016 37.606 15.497 52.146 23.753 15.091 7.44 15.778 32.33 15.631 39.781 0.003 0.021 0.005 0.039 0.006 0.056C177.005 227.983 25.68 228.386 1.21 226.811z" fill="#335529" stroke-width="none" opacity="1" stroke="none"/>
          <path id="SvgjsPath4466" d="M176.786 216.725c0.847-10.266 1.101-18.312 4.157-27.83 -4.426 14.753 1.476 26.354-7.266 34.423C174.774 220.681 176.516 219.998 176.786 216.725zM24 203c-1.608-3.938-3.672-7.405-4.444-13.604 -0.28 0.134-0.394-0.626-0.666-0.492 1.111 11.097 4.736 15.713 5.84 31.829C24.556 214.957 25.534 206.758 24 203zM121.459 156.274c-0.581 0.144-1.164 0.78-1.75 0.899 8.181 7.474 2.813 10.296 14.771 23.422 0.333-0.167 1.415-0.766 2.718-1.523C129.319 174.611 127.548 163.537 121.459 156.274zM126 180c0.447 1.342 1.101 2.482 1.859 3.603 -0.457 0.174-0.908 0.362-1.37 0.522 -2.363-3.073-4.632-6.134-6.139-12.489 -1.558-6.561-0.884-5.584-5.94-12.752 0.319-0.045 0.954-0.411 1.448-0.491C120.643 165.023 122.608 172.368 126 180zM133.719 181.005c-0.481 0.25-0.969 0.488-1.457 0.725 -6.715-7.001-9.364-15.664-13.832-23.789 0.307-0.059 0.907-0.818 1.188-0.876 3.964 4.215 3.947 6.305 5.151 10.061C126.338 171.828 130.603 177.889 133.719 181.005zM111.212 160.025c3.591 9.259 5.941 16.57 6.595 26.388 -0.469 0.085-0.937 0.17-1.407 0.242 -0.65-5.13-1.491-10.462-1.739-11.689 -0.992-4.915-2.781-11.482-4.401-14.82C110.578 160.113 110.894 160.063 111.212 160.025zM125.619 184.426c-0.555 0.185-1.115 0.352-1.676 0.519 -5.889-7.32-5.781-16.893-10.411-26.211 0.182-0.025 0.465-0.041 0.646-0.068 5.14 8.711 3.5 6.198 5.83 15.03C121.229 178.313 123.751 182.464 125.619 184.426zM115.509 186.785c-0.369 0.053-0.746 0.089-1.12 0.133 -1.339-9.809-1.877-17.542-5.437-26.651 0.249-0.022 0.499-0.037 0.747-0.062C112.922 168.123 114.231 179.352 115.509 186.785zM91.081 160.364c-3.267 8.975-3.961 15.986-4.586 25.452 -0.369-0.063-0.742-0.123-1.105-0.191 0.281-8.057 1.408-18.063 4.9-25.33C90.553 160.322 90.817 160.34 91.081 160.364zM75.389 182.894c-0.419-0.152-0.842-0.297-1.26-0.458 5.056-6.227 7.374-16.511 7.99-24.521 0.332 0.081 0.663 0.15 0.995 0.226C83.353 167.592 79.914 174.831 75.389 182.894zM89.779 160.245c-4.003 7.147-5.299 17.074-5.13 25.23 -0.319-0.063-0.618-0.137-0.93-0.203 -0.337-9.561 0.856-17.051 5.107-25.256C89.146 160.056 89.455 160.212 89.779 160.245zM66.165 179.01c-0.527-0.256-1.054-0.51-1.576-0.774 2.807-1.871 5.653-4.711 7.56-7.97 1.716-2.93 5.611-11.628 6.41-14.44 0.269 0.104 0.543 0.189 0.816 0.282C77.312 165.13 72.909 173.355 66.165 179.01zM73.509 182.205c-0.559-0.215-1.106-0.456-1.661-0.682 4.743-7.656 6.889-16.213 7.854-25.317 0.614 0.203 1.23 1.398 1.847 1.56C80.13 166.507 78.633 174.861 73.509 182.205zM78.229 155.705c-0.65 1.82-1.54 3.55-2.45 5.311 -2.167 4.379-4.345 11.597-11.83 16.88 -0.542-0.276-1.08-0.564-1.618-0.854 6.891-5.698 10.479-14.131 14.154-21.908C77.048 155.346 77.63 155.466 78.229 155.705z" fill="#24461b" stroke-width="none" opacity="1" stroke="none"/>
          <path id="SvgjsPath4467" d="M60.172 177.15l-1.928-1.29c-16.809 6.537-42.125 8.875-52 25.125 -3.719 6.119-4.913 15.014-4.913 26.014 2.027-5.485 0.759-14.439 6.636-23.292C19.401 186.481 39.771 188.32 60.172 177.15zM190.033 203.707c5.067 9.34 4.608 17.807 6.636 23.292 0-11-2.281-19.354-4.913-26.014 -7.483-18.933-33.191-16.791-50-23.328l-1.928 1.29C160.229 190.117 178.203 181.902 190.033 203.707z" fill="#44643a" stroke-width="none" opacity="1" stroke="none"/>
          <path id="SvgjsPath4468" d="M181.049 187.226c-14.496-8.229-46.88-3.804-52.1-23.69 -0.653-2.542-1.702-7.762-5.53-8.29 -0.188 0.037-0.761-0.129-0.76-0.129 -15.076 5.88-30.845 7.63-46.67-1.011 -7.111 2.493-5.169 15.246-18.61 21.22 -5.86 2.654-13.6 4.395-24.6 7.98 -25.782 8.41-30.463 16.581-31.5 35.81 -0.073 1.41-0.273 6.859-0.16 7.79 27.119 1.767 181.426 0.968 195.61 0.34 0.01-0.05 0.01-0.1 0-0.149C197.017 212.672 193.824 193.524 181.049 187.226zM123.799 155.824c7.203 2.412-0.831 13.455 15.84 21.791 -2.201 1.354-4.629 2.715-5.159 2.98 -11.958-13.126-6.443-15.043-14.173-23.123C121.739 156.826 122.459 156.244 123.799 155.824zM119.917 157.563c3.964 4.215 3.648 5.807 4.853 9.563 1.568 4.703 5.833 10.764 8.949 13.88 -2.33 1.211-4.75 2.261-7.229 3.12 -2.363-3.073-4.408-6.164-6.039-12.489 -1.438-5.573-0.936-6.018-5.741-12.652C115.709 158.843 118.341 157.886 119.917 157.563zM114.278 159.063c5.14 8.711 3.4 5.8 5.73 14.632 1.22 4.618 3.742 8.769 5.61 10.73 -3.01 1-6.1 1.75-9.22 2.229 -0.65-5.13-1.414-10.458-1.64-11.689 -1-5.454-2.881-11.482-4.501-14.82C111.539 160.016 113.009 159.254 114.278 159.063zM109.699 160.205c3.223 7.918 4.532 19.146 5.81 26.58 -2.942 0.418-6.063 0.57-8.979 0.57 -0.001-0.025-1.897-15.809-2.641-26.162C105.917 160.893 108.049 160.662 109.699 160.205zM103.389 161.213c0.05 11.677 0.956 14.712 2.41 26.152 -3.489 0.01-6.97-0.149-10.459-0.45 2.365-19.61 3.55-25.632 3.55-25.632C100.732 161.283 102.403 161.246 103.389 161.213zM98.269 161.283c-2.776 15.35-3.252 19.064-3.58 25.572 -3.189-0.268-6.325-0.668-9.3-1.23 0.281-8.057 1.408-18.063 4.9-25.33C92.939 160.565 95.609 161.273 98.269 161.283zM89.779 160.245c-4.003 7.147-5.299 17.074-5.13 25.23 -3.873-0.771-7.202-1.758-10.52-3.04 5.056-6.227 7.374-16.511 7.99-24.521C84.642 158.53 87.31 159.698 89.779 160.245zM81.549 157.766c-1.419 8.741-2.916 17.096-8.04 24.439 -3.04-1.17-6.02-2.5-8.92-3.97 2.807-1.871 5.653-4.711 7.56-7.97 1.716-2.93 5.511-11.429 6.31-14.241C79.439 156.404 80.549 157.505 81.549 157.766zM75.789 154.804c0.77 0.471 1.49 0.761 2.34 1.101 -0.65 1.82-1.44 3.351-2.35 5.111 -2.167 4.379-4.345 11.597-11.83 16.88 -1.39-0.71-2.77-1.46-4.12-2.25C71.408 169.404 69.452 157.678 75.789 154.804zM1.559 226.655c0.136-3.996 0.887-16.321 3.59-22.41 2.73-6.149 8-10.39 13.88-13.52 -0.402 9.421 4.184 10.589 4.5 21.85 0.09 3.41 0.56 6.76 1.13 10.12 -0.26-3.53-0.37-7.03-0.35-10.57 0.058-10.247-4.58-12.021-4.58-21.779 7.43-3.782 15.967-6.216 24.41-8.761 4.94-1.479 9.94-3.029 14.56-5.359 13.184 8.692 25.449 13.279 47.35 13.149 15.873 0 25.119-4.104 34.9-11.109 13.149 6.077 30.126 5.28 39.46 10.91 -1.655 4.925-2.791 7.494-3.1 10.18 -0.715 6.32 0.347 10.814-0.561 16.62 -0.53 3.37-3.12 5.85-3.82 9.16 2.036-6.202 5.709-3.93 5.261-18.551 -0.257-8.245 0.476-8.458 2.779-17.069 11.486 7.199 14.441 24.116 15.091 37.58C162.822 226.877 14.665 226.935 1.559 226.655z" fill="#0e2707" stroke-width="none" opacity="1" stroke="none"/>
        </g>
        <g id="svga-group-head" transform="matrix(1,0,0,1,0,0)">
          <g id="svga-group-ears-left-move" transform="matrix(1,0,0,1,0,0)" style="">
            <g id="svga-group-ears-left" transform="matrix(1,0,0,1,0,0)">
              <path id="SvgjsPath2790" d="M47.001 83.974c-1.376-2.313-5.638-7.997-9.98-6.603 -2.749 0.882-3.293 3.765-3.735 6.311 -0.588 3.386 0.471 10.083 1.389 12.503 0.881 2.325 3.533 6.816 5.264 8.527 2.13 2.1 4.775 8.793 5.194 9.487 0.66 1.097 1.536 2.745 4.122 2.538 2.853-0.229 4.584-1.742 5.856-1.999C58.253 114.109 50.582 89.995 47.001 83.974z" fill="#f3d4cf" stroke="#c5796d" stroke-width="1.5" opacity="1"/>
              <path id="SvgjsPath2791" d="M44.197 97.997c-0.132-0.548 0.007-1.47 0.142-2.362 0.124-0.812 0.24-1.579 0.169-2.121 -0.267-2.032-1.773-5.893-2.757-7.985 -1.132-2.407-2.963-5.439-5.262-6.221 -0.95-0.324-1.575 0.063-1.938 0.456 -0.266 0.289-0.325 0.627-0.238 0.667 0.086 0.04 0.285-0.24 0.572-0.504 0.235-0.216 0.579-0.402 1.051-0.363 -0.19 1.011-1.167 6.49-0.744 10.225 0.333 2.938 1.593 5.131 1.79 5.46 0.029 0.346 0.077 0.685 0.148 1.014 0.929 4.287 4.971 9.163 6.378 10.758 0.259 0.295 0.531 0.47 0.598 0.398 0.066-0.072-0.094-0.364-0.353-0.66 -1.388-1.585-5.391-6.442-6.289-10.579 -0.952-4.389 2.318-10.896 3.048-12.272 0.371 0.646 0.687 1.267 0.93 1.785 0.19 0.406 0.402 0.881 0.619 1.395 -0.429 0.718-3.434 5.958-2.338 10.153 0.406 1.546 2.235 3.54 3.447 4.086 0.667 0.301 0.919 0.75 1.209 1.271 0.336 0.604 0.718 1.288 1.828 1.784 0.225 0.102 0.429 0.142 0.61 0.142 0.313 0 0.551-0.126 0.725-0.276 0.018 0.266 0.017 0.604 0.009 0.917 -0.012 0.404 0.042 0.737 0.137 0.745 0.094 0.008 0.196-0.313 0.207-0.717 0.016-0.496 0.013-1.11-0.072-1.403 -0.248-0.865-1.008-1.841-1.813-2.875C45.221 99.896 44.403 98.844 44.197 97.997zM36.95 94.196c-2.177-6.731 0.656-12.54 1.144-13.464 0.85 0.775 1.6 1.811 2.21 2.824C39.86 84.365 37.041 89.669 36.95 94.196zM46.341 104.042c-1.004-0.447-1.339-1.051-1.666-1.633 -0.293-0.527-0.598-1.072-1.369-1.42 -0.168-0.075-0.352-0.191-0.542-0.323 -2.486-5.906 0.272-8.488 0.963-9.017 0.211 0.722 0.369 1.384 0.439 1.915 0.063 0.488-0.052 1.263-0.167 2.012 -0.142 0.929-0.286 1.89-0.137 2.512 0.226 0.926 1.069 2.009 1.884 3.057 0.723 0.929 1.466 1.888 1.721 2.67C47.359 103.972 47.017 104.345 46.341 104.042z" fill="#c5796d" stroke-width="none" opacity="1" stroke="none"/>
            </g>
          </g>
          <g id="svga-group-ears-right-move" transform="matrix(1,0,0,1,0,0)" style="">
            <g id="svga-group-ears-right" transform="matrix(1,0,0,1,0,0)">
              <path id="SvgjsPath2792" d="M152.736 83.974c1.377-2.313 5.639-7.997 9.98-6.603 2.75 0.882 3.293 3.765 3.736 6.311 0.588 3.386-0.471 10.083-1.389 12.503 -0.881 2.325-3.533 6.816-5.266 8.527 -2.129 2.1-4.775 8.793-5.193 9.487 -0.658 1.097-1.535 2.745-4.121 2.538 -2.854-0.229-4.584-1.742-5.857-1.999C141.484 114.109 149.156 89.995 152.736 83.974z" fill="#f3d4cf" stroke="#c5796d" stroke-width="1.5" opacity="1"/>
              <path id="SvgjsPath2793" d="M153.727 100.913c-0.805 1.033-1.564 2.009-1.813 2.875 -0.086 0.293-0.088 0.907-0.072 1.403 0.012 0.404 0.113 0.725 0.207 0.717s0.148-0.341 0.137-0.745c-0.008-0.313-0.008-0.651 0.01-0.917 0.174 0.15 0.412 0.276 0.725 0.276 0.182 0 0.385-0.04 0.609-0.142 1.109-0.496 1.492-1.18 1.828-1.784 0.289-0.52 0.543-0.969 1.209-1.271 1.213-0.546 3.041-2.54 3.447-4.086 1.096-4.194-1.908-9.435-2.338-10.153 0.217-0.513 0.43-0.988 0.619-1.395 0.244-0.518 0.559-1.139 0.93-1.785 0.73 1.377 4 7.883 3.049 12.272 -0.896 4.137-4.9 8.994-6.289 10.579 -0.258 0.296-0.418 0.588-0.352 0.66 0.066 0.071 0.338-0.104 0.598-0.398 1.406-1.596 5.449-6.471 6.379-10.758 0.07-0.329 0.117-0.668 0.146-1.014 0.197-0.329 1.459-2.523 1.791-5.46 0.422-3.735-0.555-9.214-0.744-10.225 0.473-0.039 0.814 0.146 1.051 0.363 0.287 0.264 0.486 0.544 0.572 0.504s0.027-0.378-0.238-0.667c-0.363-0.393-0.988-0.779-1.938-0.456 -2.299 0.782-4.131 3.814-5.262 6.221 -0.984 2.093-2.49 5.953-2.758 7.985 -0.072 0.542 0.045 1.309 0.17 2.121 0.135 0.892 0.273 1.814 0.141 2.362C155.336 98.844 154.518 99.896 153.727 100.913zM159.434 83.555c0.611-1.013 1.361-2.049 2.211-2.824 0.488 0.925 3.32 6.733 1.145 13.464C162.697 89.669 159.879 84.365 159.434 83.555zM152.27 103.816c0.254-0.782 0.998-1.741 1.721-2.67 0.816-1.048 1.658-2.131 1.885-3.057 0.148-0.622 0.004-1.583-0.137-2.512 -0.115-0.749-0.23-1.524-0.166-2.012 0.068-0.531 0.227-1.193 0.438-1.915 0.691 0.529 3.449 3.111 0.965 9.017 -0.191 0.132-0.375 0.248-0.543 0.323 -0.771 0.348-1.074 0.893-1.369 1.42 -0.326 0.582-0.662 1.186-1.666 1.633C152.721 104.345 152.379 103.972 152.27 103.816z" fill="#c5796d" stroke-width="none" opacity="1" stroke="none"/>
            </g>
          </g>
          <g id="svga-group-faceshape-wrap" transform="matrix(1,0,0,1,0,0)">
            <g id="svga-group-faceshape-single">
              <path id="SvgjsPath3870" d="M144.736 125.052c-4.549 9.721-18.57 27.825-28.601 32.018 -7.442 3.112-24.824 3.112-32.267 0 -10.029-4.192-24.05-22.297-28.601-32.018 -5.29-11.297-14.118-47.803-14.13-47.856 -1.3-4.912-1.996-10.066-2.004-15.382C39.082 28.339 66.289 1.168 99.907 1.116c33.621-0.052 60.913 27.032 60.963 60.506 0.009 5.316-0.669 10.473-1.952 15.389C158.901 77.063 150.045 113.711 144.736 125.052z" fill="#f3d4cf" stroke-width="none" opacity="1"/>
              <path id="SvgjsPath3871" d="M110.152 1.969c26.994 6.24 47.097 30.337 47.052 59.111 -0.009 5.315-0.704 10.471-2.004 15.382 -0.012 0.053-8.158 36.591-13.396 47.856 -4.417 9.497-18.244 26.812-27.867 31.286 -3.169 1.473-10.439 1.823-13.935 1.823 -3.494 0-10.765-0.351-13.933-1.823 -9.623-4.474-23.451-21.789-27.867-31.286 -5.239-11.266-13.385-47.803-13.396-47.856 -1.3-4.911-1.996-10.066-2.004-15.382C42.756 32.307 62.857 8.209 89.853 1.969 61.03 6.788 39.087 31.751 39.134 61.813c0.008 5.315 0.704 10.47 2.004 15.382 0.012 0.053 8.781 36.586 14.13 47.856 4.602 9.696 18.738 27.446 28.601 32.018 3.671 1.703 12.088 2.334 16.134 2.334 4.043 0 12.464-0.632 16.133-2.334 9.862-4.571 24-22.321 28.601-32.018 5.35-11.271 14.119-47.803 14.13-47.856 1.3-4.912 1.996-10.066 2.004-15.382C160.918 31.751 138.975 6.788 110.152 1.969z" fill="#ebc3bd" stroke-width="none" opacity="1"/>
              <path id="SvgjsPath3872" d="M144.736 125.052c-4.549 9.721-18.57 27.825-28.601 32.018 -7.442 3.112-24.824 3.112-32.267 0 -10.029-4.192-24.05-22.297-28.601-32.018 -5.29-11.297-14.118-47.803-14.13-47.856 -1.3-4.912-1.996-10.066-2.004-15.382C39.082 28.339 66.289 1.168 99.907 1.116c33.621-0.052 60.913 27.032 60.963 60.506 0.009 5.316-0.669 10.473-1.952 15.389C158.901 77.063 150.045 113.711 144.736 125.052z" fill="none" stroke="#c5796d" stroke-width="1.5" opacity="1"/>
            </g>
          </g>
          <g id="svga-group-mouth-single-move" transform="matrix(1,0,0,1,0,0)">
            <g id="svga-group-mouth-single" transform="matrix(1,0,0,1,0,0)">
              <path id="SvgjsPath2898" d="M100.002 141.435c-4.158 0-5.133-3.232-5.133-3.232h10.267C105.136 138.202 103.659 141.435 100.002 141.435z" fill="url(#SvgjsLinearGradient2899)" opacity="1"/>
              <path id="SvgjsPath2902" d="M87.536 132.96c2.756-0.951 6.239-3.625 8.432-3.723 1.133-0.051 2.351 0.87 3.574 1.166 0.851 0.207 3.264-1.156 4.13-1.166 2.272-0.022 6.326 2.771 8.769 3.723 0.135 0.055 0 0 0 0s-5.056 6.021-12.452 6.021C91.618 138.98 87.536 132.96 87.536 132.96S87.399 133.01 87.536 132.96z" fill="#f771a9" stroke="#e85391" stroke-width="0.75" opacity="1"/>
              <path id="SvgjsPath2903" d="M112.808 132.902c-0.187-0.076-0.606-0.028-0.753-0.021 -0.304 0.016-0.546-0.117-1.214-0.129 -0.742-0.012-3.945-0.268-5.003-0.338 -2.129-0.143-3.824 0.666-5.848 0.666 -2.025 0-3.868-0.883-5.996-0.74 -1.057 0.072-4.113 0.395-4.857 0.412 -0.663 0.019-0.923 0.133-1.231 0.12 -0.143-0.007-0.595-0.05-0.771 0.05 -0.147 0.086-0.09 0.559 0.027 0.683 0.285 0.298 1.397-0.233 1.959-0.22 0.777 0.017 3.843-0.05 4.917-0.121 2.081-0.142 3.936 0.821 5.952 0.821s3.725-0.889 5.806-0.749c1.071 0.072 4.281 0.064 5.06 0.049 0.563-0.014 1.764 0.449 2.052 0.22C113.043 133.495 112.972 132.969 112.808 132.902z" fill="#c92066" stroke-width="none" opacity="1" stroke="none"/>
              <path id="SvgjsPath2904" d="M99.989 137.439c-3.37 0-6.645-1.154-9.241-3.306 1.307-0.072 2.652-0.277 3.961-0.219 1.613 0.07 3.144 0.705 4.756 0.813 1.742 0.116 3.358-0.488 5.064-0.695 1.422-0.171 2.931 0.059 4.357 0.111C106.335 136.101 103.244 137.439 99.989 137.439zM104.78 131.682c1.313-0.08 2.661 0.088 3.974 0.141 -1.43-0.712-2.953-1.553-4.549-1.807 -1.374-0.218-2.71 0.882-4.045 1.104 -1.506 0.25-2.69-1.15-4.16-1.15 -1.592 0.07-3.198 1.099-4.576 1.805 1.282-0.076 2.6-0.263 3.884-0.141 1.572 0.147 3.094 0.714 4.682 0.714C101.612 132.348 103.161 131.78 104.78 131.682z" fill="#ff8ebd" stroke-width="none" opacity="1" stroke="none"/>
              <path id="SvgjsPath2905" d="M99.941 136.486c-2.029 0-4.007-0.701-5.707-2.001 0.38-0.037 0.764-0.066 1.133-0.066 0.117 0 0.234 0.003 0.351 0.009 0.609 0.033 1.209 0.208 1.846 0.394 0.618 0.178 1.256 0.363 1.923 0.419 0.132 0.012 0.264 0.016 0.395 0.016 0.819 0 1.596-0.204 2.348-0.399 0.477-0.126 0.928-0.245 1.392-0.313 0.253-0.04 0.527-0.058 0.837-0.058 0.268 0 0.544 0.014 0.818 0.034C103.862 135.572 102.03 136.486 99.941 136.486z" fill="#ffa8cc" stroke-width="none" opacity="1" stroke="none"/>
            </g>
          </g>
          <g id="svga-group-eyes-left-move" transform="matrix(1,0,0,1,3,1)">
            <g id="svga-group-eyes-left" transform="matrix(1,0,0,1,0,0)">
              <g id="svga-group-eyesback-left">
                <path id="SvgjsPath4202" d="M66.025 80.104c9.208 0.042 15.785 3.133 22.428 9.178 0.138 0.863-0.601 2.567-1.775 2.992 -3.086 0.59-6.199 1.063-9.317 1.41 -7.733 0.859-10.43 0.213-11.361-0.277 -0.518-0.419-0.859-0.95-1.203-1.577 0.039 0.053 0.08 0.11 0.119 0.163C60.692 83.283 63.403 80.092 66.025 80.104z" fill="url(#SvgjsRadialGradient4203)" opacity="1"/>
              </g>
              <g id="svga-group-eyesiriswrapper-left" transform="matrix(1,0,0,1,0,1)">
                <g id="svga-group-eyesiriscontrol-left" transform="matrix(1,0,0,1,0,0)">
                  <g id="svga-group-eyesiris-left" transform="matrix(1,0,0,1,0,0)">
                    <path id="SvgjsPath4398" d="M83.5 87c0 4.694-3.806 8.5-8.499 8.5 -4.694 0-8.501-3.806-8.501-8.5l0 0c0-4.694 3.807-8.5 8.501-8.5C79.694 78.499 83.5 82.305 83.5 87L83.5 87z" fill="#4e60a3" stroke-width="none" opacity="1"/>
                    <path id="SvgjsPath4399" d="M74.048 78.595c-0.033 0.004-0.066 0.008-0.101 0.012 0.041 0.191 0.081 0.384 0.12 0.575C74.06 78.987 74.055 78.789 74.048 78.595zM74.066 79.18c0.099 2.793 0.262 5.282 0.732 6.183C75.047 84.377 74.625 81.92 74.066 79.18zM74.8 85.365c-0.061 0.236-0.153 0.397-0.294 0.452 -0.142 0.053-0.319-0.008-0.521-0.146 0.058 0.236 0.052 0.422-0.051 0.537 -0.102 0.114-0.285 0.142-0.527 0.11 0.16 0.184 0.242 0.353 0.206 0.5 -0.039 0.148-0.189 0.258-0.415 0.343 0.225 0.088 0.376 0.199 0.411 0.347 0.036 0.148-0.046 0.315-0.205 0.498 0.241-0.029 0.426 0.001 0.525 0.115 0.101 0.114 0.106 0.301 0.05 0.537 0.199-0.137 0.376-0.197 0.518-0.142 0.143 0.053 0.234 0.216 0.291 0.454 0.114-0.215 0.243-0.353 0.396-0.368 0.148-0.02 0.307 0.084 0.466 0.267 0.002-0.244 0.053-0.423 0.181-0.51 0.124-0.086 0.311-0.069 0.537 0.018 -0.11-0.216-0.148-0.398-0.078-0.534 0.071-0.135 0.245-0.207 0.487-0.235 -0.199-0.14-0.321-0.283-0.318-0.436 -0.001-0.153 0.119-0.296 0.321-0.434 -0.241-0.03-0.412-0.103-0.484-0.237 -0.07-0.135-0.031-0.319 0.081-0.535 -0.229 0.085-0.413 0.102-0.538 0.016 -0.126-0.086-0.177-0.267-0.178-0.51 -0.158 0.182-0.316 0.282-0.468 0.262C75.041 85.714 74.911 85.58 74.8 85.365zM75.66 85.471c0.679-0.758 1.446-3.13 2.224-5.813C76.674 82.174 75.662 84.453 75.66 85.471zM77.883 79.657c0.085-0.172 0.172-0.348 0.253-0.524 -0.03-0.011-0.06-0.024-0.09-0.037C77.992 79.284 77.938 79.472 77.883 79.657zM76.377 85.965c0.953-0.357 2.736-2.101 4.671-4.115C78.808 83.517 76.851 85.065 76.377 85.965zM81.048 81.851c0.142-0.106 0.287-0.213 0.433-0.318 -0.021-0.025-0.043-0.047-0.06-0.07C81.297 81.59 81.174 81.722 81.048 81.851zM76.777 86.738c1.01 0.125 3.399-0.591 6.052-1.475C80.068 85.698 77.617 86.159 76.777 86.738zM82.829 85.263c0.156-0.022 0.318-0.048 0.478-0.073 -0.007-0.026-0.013-0.054-0.02-0.081C83.135 85.16 82.979 85.212 82.829 85.263zM76.775 87.606c0.836 0.583 3.284 1.057 6.038 1.505C80.171 88.214 77.786 87.484 76.775 87.606zM82.813 89.111c0.135 0.047 0.271 0.095 0.404 0.138 0.007-0.024 0.013-0.047 0.018-0.071C83.098 89.158 82.954 89.135 82.813 89.111zM76.367 88.375c0.471 0.902 2.42 2.462 4.649 4.142C79.092 90.492 77.32 88.737 76.367 88.375zM81.018 92.514c0.083 0.087 0.17 0.179 0.253 0.268 0.014-0.017 0.027-0.031 0.043-0.046C81.215 92.662 81.113 92.587 81.018 92.514zM75.652 88.867c-0.004 1.019 0.995 3.302 2.191 5.827C77.079 92.006 76.327 89.628 75.652 88.867zM77.844 94.694c0.03 0.106 0.062 0.215 0.09 0.324 0.021-0.008 0.036-0.015 0.055-0.02C77.941 94.896 77.892 94.793 77.844 94.694zM74.788 88.968c-0.476 0.902-0.653 3.386-0.768 6.178C74.594 92.413 75.031 89.958 74.788 88.968zM74.021 95.146c-0.023 0.106-0.044 0.214-0.066 0.323 0.02 0.004 0.035 0.005 0.055 0.007C74.013 95.368 74.018 95.254 74.021 95.146zM73.979 88.657c-0.844 0.576-2.154 2.697-3.553 5.114C72.204 91.617 73.733 89.645 73.979 88.657zM70.427 93.771c-0.074 0.09-0.152 0.185-0.229 0.274 0.018 0.012 0.034 0.02 0.053 0.034C70.309 93.976 70.369 93.873 70.427 93.771zM73.405 88.006c-1.015 0.119-3.16 1.385-5.522 2.875C70.46 89.801 72.726 88.768 73.405 88.006zM67.883 90.884c-0.122 0.051-0.247 0.102-0.372 0.156 0.009 0.019 0.021 0.038 0.033 0.057C67.658 91.027 67.771 90.954 67.883 90.884zM73.198 87.161c-0.951-0.365-3.441-0.238-6.227-0.016C69.755 87.383 72.244 87.521 73.198 87.161zM66.972 87.145c-0.151-0.014-0.308-0.028-0.457-0.041 -0.001 0.027-0.003 0.053-0.001 0.08C66.669 87.169 66.822 87.156 66.972 87.145zM73.407 86.318c-0.67-0.763-2.932-1.809-5.499-2.905C70.259 84.915 72.397 86.196 73.407 86.318zM67.908 83.413c-0.147-0.095-0.297-0.189-0.446-0.285 -0.013 0.026-0.026 0.053-0.041 0.078C67.585 83.276 67.75 83.344 67.908 83.413zM73.985 85.67c-0.239-0.989-1.758-2.967-3.521-5.132C71.849 82.963 73.147 85.09 73.985 85.67zM70.465 80.538c-0.095-0.163-0.188-0.329-0.281-0.494 -0.026 0.018-0.055 0.037-0.079 0.054C70.224 80.245 70.348 80.393 70.465 80.538z" fill="url(#SvgjsRadialGradient4400)" opacity="1"/>
                    <path id="SvgjsPath4403" d="M76.255 78.622c-0.034-0.004-0.066-0.01-0.1-0.014 -0.011 0.196-0.022 0.393-0.034 0.586C76.164 79.004 76.211 78.812 76.255 78.622zM76.12 79.193c-0.627 2.724-1.114 5.17-0.892 6.162C75.724 84.467 75.95 81.984 76.12 79.193zM75.229 85.356c-0.119 0.212-0.25 0.344-0.401 0.36 -0.15 0.014-0.306-0.091-0.464-0.276 -0.006 0.243-0.06 0.421-0.188 0.505 -0.128 0.083-0.313 0.063-0.539-0.03 0.107 0.219 0.143 0.403 0.069 0.536 -0.075 0.133-0.249 0.201-0.489 0.224 0.194 0.144 0.312 0.289 0.308 0.441 -0.003 0.152-0.126 0.292-0.327 0.428 0.24 0.034 0.41 0.111 0.478 0.247 0.067 0.136 0.025 0.318-0.091 0.532 0.229-0.081 0.414-0.093 0.537-0.003 0.123 0.088 0.17 0.27 0.164 0.514 0.166-0.177 0.325-0.278 0.478-0.253 0.148 0.02 0.274 0.16 0.382 0.379 0.064-0.236 0.16-0.396 0.306-0.447 0.143-0.051 0.318 0.014 0.515 0.157 -0.051-0.237-0.041-0.423 0.063-0.536s0.29-0.136 0.532-0.102c-0.157-0.187-0.238-0.356-0.195-0.504 0.039-0.148 0.192-0.255 0.423-0.336 -0.226-0.091-0.372-0.206-0.407-0.354 -0.032-0.149 0.053-0.316 0.218-0.495 -0.243 0.023-0.427-0.009-0.524-0.125 -0.099-0.115-0.102-0.303-0.039-0.538 -0.201 0.134-0.38 0.19-0.521 0.132C75.37 85.756 75.281 85.593 75.229 85.356zM76.033 85.683c0.852-0.558 2.206-2.65 3.652-5.04C77.865 82.76 76.298 84.699 76.033 85.683zM79.685 80.641c0.126-0.145 0.255-0.292 0.38-0.44 -0.027-0.019-0.052-0.04-0.078-0.06C79.886 80.31 79.785 80.477 79.685 80.641zM76.597 86.345c1.013-0.099 3.187-1.322 5.577-2.767C79.578 84.609 77.287 85.598 76.597 86.345zM82.173 83.579c0.165-0.065 0.333-0.131 0.501-0.195 -0.014-0.029-0.029-0.056-0.04-0.083C82.481 83.392 82.328 83.487 82.173 83.579zM76.783 87.194c0.943 0.382 3.437 0.309 6.227 0.142C80.231 87.042 77.745 86.853 76.783 87.194zM83.01 87.336c0.158 0.019 0.32 0.036 0.48 0.053 0.001-0.027 0.002-0.055 0.003-0.083C83.332 87.316 83.168 87.326 83.01 87.336zM76.558 88.033c0.655 0.78 2.898 1.871 5.442 3.017C79.679 89.499 77.565 88.177 76.558 88.033zM82 91.049c0.117 0.08 0.236 0.161 0.354 0.238 0.013-0.021 0.024-0.042 0.035-0.063C82.262 91.168 82.129 91.109 82 91.049zM75.964 88.67c0.221 0.993 1.699 3.004 3.419 5.205C78.048 91.419 76.791 89.266 75.964 88.67zM79.384 93.872c0.059 0.106 0.117 0.217 0.176 0.325 0.018-0.013 0.034-0.023 0.053-0.034C79.536 94.065 79.458 93.967 79.384 93.872zM75.146 88.96c-0.267 0.982 0.107 3.447 0.608 6.195C75.711 92.361 75.601 89.87 75.146 88.96zM75.754 95.155c0.002 0.11 0.004 0.224 0.004 0.337 0.021-0.003 0.038-0.005 0.058-0.005C75.796 95.376 75.775 95.264 75.754 95.155zM74.285 88.834c-0.693 0.748-1.508 3.102-2.341 5.769C73.205 92.11 74.265 89.853 74.285 88.834zM71.944 94.603c-0.05 0.096-0.099 0.195-0.147 0.295 0.017 0.008 0.032 0.013 0.051 0.021C71.879 94.815 71.913 94.707 71.944 94.603zM73.584 88.324c-0.964 0.338-2.779 2.048-4.756 4.021C71.104 90.724 73.091 89.215 73.584 88.324zM68.828 92.345c-0.095 0.067-0.194 0.138-0.29 0.206 0.014 0.016 0.027 0.028 0.041 0.045C68.661 92.511 68.746 92.428 68.828 92.345zM73.197 87.546c-1.01-0.148-3.409 0.521-6.078 1.349C69.889 88.518 72.345 88.106 73.197 87.546zM67.119 88.897c-0.131 0.018-0.265 0.034-0.4 0.054 0.005 0.021 0.011 0.042 0.018 0.063C66.865 88.977 66.993 88.936 67.119 88.897zM73.217 86.677c-0.824-0.599-3.263-1.121-6.01-1.627C69.833 86 72.202 86.777 73.217 86.677zM67.207 85.05c-0.143-0.052-0.29-0.106-0.432-0.158 -0.008 0.026-0.016 0.051-0.021 0.077C66.907 84.995 67.06 85.022 67.207 85.05zM73.637 85.917c-0.45-0.911-2.363-2.506-4.561-4.23C70.959 83.747 72.693 85.538 73.637 85.917zM69.076 81.688c-0.118-0.13-0.236-0.26-0.355-0.391 -0.021 0.022-0.041 0.044-0.061 0.065C68.8 81.471 68.941 81.58 69.076 81.688zM74.363 85.44c0.024-1.017-0.93-3.321-2.073-5.868C72.999 82.273 73.704 84.663 74.363 85.44zM72.29 79.572c-0.049-0.182-0.096-0.366-0.144-0.55 -0.029 0.01-0.062 0.021-0.09 0.032C72.134 79.227 72.214 79.401 72.29 79.572z" fill="url(#SvgjsRadialGradient4404)" opacity="1"/>
                    <path id="SvgjsPath4407" d="M78.334 87c0 1.842-1.492 3.333-3.333 3.333S71.666 88.841 71.666 87c0-1.841 1.494-3.334 3.335-3.334C76.844 83.666 78.334 85.159 78.334 87z" fill="#4e60a3" stroke-width="none" opacity="1"/>
                    <path id="SvgjsPath4408" d="M78.334 87c0 1.842-1.492 3.333-3.333 3.333S71.666 88.841 71.666 87c0-1.841 1.494-3.334 3.335-3.334C76.844 83.666 78.334 85.159 78.334 87z" fill="#000000" stroke-width="none" opacity="0.9"/>
                    <path id="SvgjsPath4409" d="M70.35 90.893c0.636-0.427 1.5-0.255 1.927 0.38 0.427 0.637 0.258 1.5-0.379 1.927 -0.638 0.429-1.5 0.258-1.927-0.378C69.544 92.185 69.713 91.32 70.35 90.893L70.35 90.893z" fill="url(#SvgjsLinearGradient4410)" opacity="0.5"/>
                    <path id="SvgjsPath4413" d="M77.635 86.536c-0.356 0.53-1.373 0.468-2.275-0.136 -0.903-0.605-1.346-1.526-0.991-2.055l0.001-0.001c0.354-0.53 1.372-0.469 2.274 0.137 0.903 0.604 1.346 1.524 0.992 2.054C77.635 86.536 77.635 86.536 77.635 86.536z" fill="url(#SvgjsLinearGradient4414)" opacity="0.5"/>
                    <path id="SvgjsPath4417" d="M81.682 85.121c-0.806 1.237-2.884 1.31-4.641 0.166 -1.756-1.145-2.527-3.075-1.722-4.311 0.806-1.235 2.884-1.31 4.641-0.166C81.715 81.956 82.485 83.887 81.682 85.121L81.682 85.121z" fill="url(#SvgjsLinearGradient4418)" opacity="0.75"/>
                  </g>
                </g>
              </g>
              <g id="svga-group-eyesfront-left">
                <path id="SvgjsPath4227" d="M57 88c0 13.808 8.06 24.999 18 24.999S93 101.808 93 88c0-13.809-8.06-25.001-18-25.001S57 74.191 57 88zM64.915 91.992c-4.223-8.709-1.512-11.9 1.11-11.888 9.208 0.042 15.785 3.133 22.428 9.178 0.138 0.863-0.601 2.567-1.775 2.992 -3.086 0.59-6.199 1.063-9.317 1.41 -7.733 0.859-10.43 0.213-11.361-0.277 -0.518-0.419-0.859-0.95-1.203-1.577C64.835 91.882 64.876 91.939 64.915 91.992z" fill="#f3d4cf" stroke-width="none" opacity="1"/>
                <path id="SvgjsPath4228" d="M59.888 86.375c0.023 7.713 7.896 13.931 17.596 13.89 9.696-0.043 17.541-6.328 17.516-14.041 -0.023-7.714-7.898-13.933-17.598-13.892C67.704 72.376 59.863 78.66 59.888 86.375zM64.915 91.992c-4.223-8.709-1.512-11.9 1.11-11.888 9.208 0.042 15.785 3.133 22.428 9.178 0.138 0.863-0.601 2.567-1.775 2.992 -3.086 0.59-6.199 1.063-9.317 1.41 -7.733 0.859-10.43 0.213-11.361-0.277 -0.518-0.419-0.859-0.95-1.203-1.577C64.835 91.882 64.876 91.939 64.915 91.992z" fill="url(#SvgjsRadialGradient4229)" opacity="1"/>
                <path id="SvgjsPath4233" d="M88.453 89.282c0.138 0.863-0.601 2.567-1.775 2.992 -3.086 0.59-6.199 1.063-9.317 1.41 -7.733 0.859-10.43 0.213-11.361-0.277 -0.518-0.419-0.859-0.95-1.203-1.577 0.039 0.053 0.08 0.11 0.119 0.163 -3.392-6.996-2.308-10.426-0.392-11.5 0.685-0.148 1.378-0.271 2.079-0.373C75.507 80.287 81.952 83.366 88.453 89.282z" fill="url(#SvgjsRadialGradient4234)" opacity="1"/>
                <path id="SvgjsPath4237" d="M89.364 86.486c-4.879-4.498-11.941-7.793-18.25-9.692 -5.849-1.761-10.449-2.086-18.501-1.266 6.934-0.149 12.094-0.277 18.777 1.841C77.733 79.379 83.972 82.54 89.364 86.486z" fill="#c5796d" stroke-width="none" opacity="1"/>
                <path id="SvgjsPath4238" d="M88.584 89.314c-6.688-5.901-13.29-8.915-22.559-8.956 -2.622-0.012-5.333 3.063-1.11 11.455 -2.768-3.59-5.786-8.89-13.915-15.427 4.148 0.993 4.8 0.884 7.131 1.154 -1.786-0.744-3.408-2.237-6.61-4.595 5.178 2.897 7.519 3.967 11.008 5.117 -2.017-1.082-3.605-2.437-5.952-4.387 3.634 2.102 5.978 3.468 8.785 4.61l-2.088-2.608c1.557 1.413 3.101 2.689 4.26 3.205 9.479 0.908 16.21 4.665 21.324 10.109C89.249 89.407 89.012 89.691 88.584 89.314zM65.516 92.776c1.329 2.274 8.103 1.813 10.736 1.609 1.092-0.132 10.735-1.593 10.735-2.268 -0.005-0.027-0.011-0.054-0.017-0.081 -3.182 0.594-6.393 1.063-9.61 1.407C66.093 94.65 65.516 92.776 65.516 92.776z" fill="#000000" stroke-width="none" opacity="1"/>
              </g>
            </g>
          </g>
          <g id="svga-group-eyes-right-move" transform="matrix(1,0,0,1,-3,1)">
            <g id="svga-group-eyes-right" transform="matrix(1,0,0,1,0,0)">
              <g id="svga-group-eyesback-right">
                <path id="SvgjsPath4210" d="M133.975 80.104c-9.208 0.042-15.785 3.133-22.428 9.178 -0.138 0.863 0.601 2.567 1.775 2.992 3.086 0.59 6.199 1.063 9.317 1.41 7.733 0.859 10.43 0.213 11.361-0.277 0.518-0.419 0.859-0.95 1.203-1.577 -0.039 0.053-0.08 0.11-0.119 0.163C139.308 83.283 136.597 80.092 133.975 80.104z" fill="url(#SvgjsRadialGradient4211)" opacity="1"/>
              </g>
              <g id="svga-group-eyesiriswrapper-right" transform="matrix(1,0,0,1,0,1)">
                <g id="svga-group-eyesiriscontrol-right" transform="matrix(1,0,0,1,0,0)">
                  <g id="svga-group-eyesiris-right" transform="matrix(1,0,0,1,0,0)">
                    <path id="SvgjsPath4421" d="M133.5 87c0 4.694-3.806 8.5-8.499 8.5 -4.694 0-8.501-3.806-8.501-8.5l0 0c0-4.694 3.807-8.5 8.501-8.5C129.694 78.499 133.5 82.305 133.5 87L133.5 87z" fill="#4e60a3" stroke-width="none" opacity="1"/>
                    <path id="SvgjsPath4422" d="M124.048 78.595c-0.033 0.004-0.066 0.008-0.101 0.012 0.041 0.191 0.081 0.384 0.12 0.575C124.06 78.987 124.055 78.789 124.048 78.595zM124.066 79.18c0.099 2.793 0.262 5.282 0.732 6.183C125.047 84.377 124.625 81.92 124.066 79.18zM124.8 85.365c-0.061 0.236-0.153 0.397-0.294 0.452 -0.142 0.053-0.319-0.008-0.521-0.146 0.058 0.236 0.052 0.422-0.051 0.537 -0.102 0.114-0.285 0.142-0.527 0.11 0.16 0.184 0.242 0.353 0.206 0.5 -0.039 0.148-0.189 0.258-0.415 0.343 0.225 0.088 0.376 0.199 0.411 0.347 0.036 0.148-0.046 0.315-0.205 0.498 0.241-0.029 0.426 0.001 0.525 0.115 0.101 0.114 0.106 0.301 0.05 0.537 0.199-0.137 0.376-0.197 0.518-0.142 0.143 0.053 0.234 0.216 0.291 0.454 0.114-0.215 0.243-0.353 0.396-0.368 0.148-0.02 0.307 0.084 0.466 0.267 0.002-0.244 0.053-0.423 0.181-0.51 0.124-0.086 0.311-0.069 0.537 0.018 -0.11-0.216-0.148-0.398-0.078-0.534 0.071-0.135 0.245-0.207 0.487-0.235 -0.199-0.14-0.321-0.283-0.318-0.436 -0.001-0.153 0.119-0.296 0.321-0.434 -0.241-0.03-0.412-0.103-0.484-0.237 -0.07-0.135-0.031-0.319 0.081-0.535 -0.229 0.085-0.413 0.102-0.538 0.016 -0.126-0.086-0.177-0.267-0.178-0.51 -0.158 0.182-0.316 0.282-0.468 0.262C125.041 85.714 124.911 85.58 124.8 85.365zM125.66 85.471c0.679-0.758 1.446-3.13 2.224-5.813C126.674 82.174 125.662 84.453 125.66 85.471zM127.883 79.657c0.085-0.172 0.172-0.348 0.253-0.524 -0.03-0.011-0.06-0.024-0.09-0.037C127.992 79.284 127.938 79.472 127.883 79.657zM126.377 85.965c0.953-0.357 2.736-2.101 4.671-4.115C128.808 83.517 126.851 85.065 126.377 85.965zM131.048 81.851c0.142-0.106 0.287-0.213 0.433-0.318 -0.021-0.025-0.043-0.047-0.06-0.07C131.297 81.59 131.174 81.722 131.048 81.851zM126.777 86.738c1.01 0.125 3.399-0.591 6.052-1.475C130.068 85.698 127.617 86.159 126.777 86.738zM132.829 85.263c0.156-0.022 0.318-0.048 0.478-0.073 -0.007-0.026-0.013-0.054-0.02-0.081C133.135 85.16 132.979 85.212 132.829 85.263zM126.775 87.606c0.836 0.583 3.284 1.057 6.038 1.505C130.171 88.214 127.786 87.484 126.775 87.606zM132.813 89.111c0.135 0.047 0.271 0.095 0.404 0.138 0.007-0.024 0.013-0.047 0.018-0.071C133.098 89.158 132.954 89.135 132.813 89.111zM126.367 88.375c0.471 0.902 2.42 2.462 4.649 4.142C129.092 90.492 127.32 88.737 126.367 88.375zM131.018 92.514c0.083 0.087 0.17 0.179 0.253 0.268 0.014-0.017 0.027-0.031 0.043-0.046C131.215 92.662 131.113 92.587 131.018 92.514zM125.652 88.867c-0.004 1.019 0.995 3.302 2.191 5.827C127.079 92.006 126.327 89.628 125.652 88.867zM127.844 94.694c0.03 0.106 0.062 0.215 0.09 0.324 0.021-0.008 0.036-0.015 0.055-0.02C127.941 94.896 127.892 94.793 127.844 94.694zM124.788 88.968c-0.476 0.902-0.653 3.386-0.768 6.178C124.594 92.413 125.031 89.958 124.788 88.968zM124.021 95.146c-0.023 0.106-0.044 0.214-0.066 0.323 0.02 0.004 0.035 0.005 0.055 0.007C124.013 95.368 124.018 95.254 124.021 95.146zM123.979 88.657c-0.844 0.576-2.154 2.697-3.553 5.114C122.204 91.617 123.733 89.645 123.979 88.657zM120.427 93.771c-0.074 0.09-0.152 0.185-0.229 0.274 0.018 0.012 0.034 0.02 0.053 0.034C120.309 93.976 120.369 93.873 120.427 93.771zM123.405 88.006c-1.015 0.119-3.16 1.385-5.522 2.875C120.46 89.801 122.726 88.768 123.405 88.006zM117.883 90.884c-0.122 0.051-0.247 0.102-0.372 0.156 0.009 0.019 0.021 0.038 0.033 0.057C117.658 91.027 117.771 90.954 117.883 90.884zM123.198 87.161c-0.951-0.365-3.441-0.238-6.227-0.016C119.755 87.383 122.244 87.521 123.198 87.161zM116.972 87.145c-0.151-0.014-0.308-0.028-0.457-0.041 -0.001 0.027-0.003 0.053-0.001 0.08C116.669 87.169 116.822 87.156 116.972 87.145zM123.407 86.318c-0.67-0.763-2.932-1.809-5.499-2.905C120.259 84.915 122.397 86.196 123.407 86.318zM117.908 83.413c-0.147-0.095-0.297-0.189-0.446-0.285 -0.013 0.026-0.026 0.053-0.041 0.078C117.585 83.276 117.75 83.344 117.908 83.413zM123.985 85.67c-0.239-0.989-1.758-2.967-3.521-5.132C121.849 82.963 123.147 85.09 123.985 85.67zM120.465 80.538c-0.095-0.163-0.188-0.329-0.281-0.494 -0.026 0.018-0.055 0.037-0.079 0.054C120.224 80.245 120.348 80.393 120.465 80.538z" fill="url(#SvgjsRadialGradient4423)" opacity="1"/>
                    <path id="SvgjsPath4426" d="M126.255 78.622c-0.034-0.004-0.066-0.01-0.1-0.014 -0.011 0.196-0.022 0.393-0.034 0.586C126.164 79.004 126.211 78.812 126.255 78.622zM126.12 79.193c-0.627 2.724-1.114 5.17-0.892 6.162C125.724 84.467 125.95 81.984 126.12 79.193zM125.229 85.356c-0.119 0.212-0.25 0.344-0.401 0.36 -0.15 0.014-0.306-0.091-0.464-0.276 -0.006 0.243-0.06 0.421-0.188 0.505 -0.128 0.083-0.313 0.063-0.539-0.03 0.107 0.219 0.143 0.403 0.069 0.536 -0.075 0.133-0.249 0.201-0.489 0.224 0.194 0.144 0.312 0.289 0.308 0.441 -0.003 0.152-0.126 0.292-0.327 0.428 0.24 0.034 0.41 0.111 0.478 0.247 0.067 0.136 0.025 0.318-0.091 0.532 0.229-0.081 0.414-0.093 0.537-0.003 0.123 0.088 0.17 0.27 0.164 0.514 0.166-0.177 0.325-0.278 0.478-0.253 0.148 0.02 0.274 0.16 0.382 0.379 0.064-0.236 0.16-0.396 0.306-0.447 0.143-0.051 0.318 0.014 0.515 0.157 -0.051-0.237-0.041-0.423 0.063-0.536s0.29-0.136 0.532-0.102c-0.157-0.187-0.238-0.356-0.195-0.504 0.039-0.148 0.192-0.255 0.423-0.336 -0.226-0.091-0.372-0.206-0.407-0.354 -0.032-0.149 0.053-0.316 0.218-0.495 -0.243 0.023-0.427-0.009-0.524-0.125 -0.099-0.115-0.102-0.303-0.039-0.538 -0.201 0.134-0.38 0.19-0.521 0.132C125.37 85.756 125.281 85.593 125.229 85.356zM126.033 85.683c0.852-0.558 2.206-2.65 3.652-5.04C127.865 82.76 126.298 84.699 126.033 85.683zM129.685 80.641c0.126-0.145 0.255-0.292 0.38-0.44 -0.027-0.019-0.052-0.04-0.078-0.06C129.886 80.31 129.785 80.477 129.685 80.641zM126.597 86.345c1.013-0.099 3.187-1.322 5.577-2.767C129.578 84.609 127.287 85.598 126.597 86.345zM132.173 83.579c0.165-0.065 0.333-0.131 0.501-0.195 -0.014-0.029-0.029-0.056-0.04-0.083C132.481 83.392 132.328 83.487 132.173 83.579zM126.783 87.194c0.943 0.382 3.437 0.309 6.227 0.142C130.231 87.042 127.745 86.853 126.783 87.194zM133.01 87.336c0.158 0.019 0.32 0.036 0.48 0.053 0.001-0.027 0.002-0.055 0.003-0.083C133.332 87.316 133.168 87.326 133.01 87.336zM126.558 88.033c0.655 0.78 2.898 1.871 5.442 3.017C129.679 89.499 127.565 88.177 126.558 88.033zM132 91.049c0.117 0.08 0.236 0.161 0.354 0.238 0.013-0.021 0.024-0.042 0.035-0.063C132.262 91.168 132.129 91.109 132 91.049zM125.964 88.67c0.221 0.993 1.699 3.004 3.419 5.205C128.048 91.419 126.791 89.266 125.964 88.67zM129.384 93.872c0.059 0.106 0.117 0.217 0.176 0.325 0.018-0.013 0.034-0.023 0.053-0.034C129.536 94.065 129.458 93.967 129.384 93.872zM125.146 88.96c-0.267 0.982 0.107 3.447 0.608 6.195C125.711 92.361 125.601 89.87 125.146 88.96zM125.754 95.155c0.002 0.11 0.004 0.224 0.004 0.337 0.021-0.003 0.038-0.005 0.058-0.005C125.796 95.376 125.775 95.264 125.754 95.155zM124.285 88.834c-0.693 0.748-1.508 3.102-2.341 5.769C123.205 92.11 124.265 89.853 124.285 88.834zM121.944 94.603c-0.05 0.096-0.099 0.195-0.147 0.295 0.017 0.008 0.032 0.013 0.051 0.021C121.879 94.815 121.913 94.707 121.944 94.603zM123.584 88.324c-0.964 0.338-2.779 2.048-4.756 4.021C121.104 90.724 123.091 89.215 123.584 88.324zM118.828 92.345c-0.095 0.067-0.194 0.138-0.29 0.206 0.014 0.016 0.027 0.028 0.041 0.045C118.661 92.511 118.746 92.428 118.828 92.345zM123.197 87.546c-1.01-0.148-3.409 0.521-6.078 1.349C119.889 88.518 122.345 88.106 123.197 87.546zM117.119 88.897c-0.131 0.018-0.265 0.034-0.4 0.054 0.005 0.021 0.011 0.042 0.018 0.063C116.865 88.977 116.993 88.936 117.119 88.897zM123.217 86.677c-0.824-0.599-3.263-1.121-6.01-1.627C119.833 86 122.202 86.777 123.217 86.677zM117.207 85.05c-0.143-0.052-0.29-0.106-0.432-0.158 -0.008 0.026-0.016 0.051-0.021 0.077C116.907 84.995 117.06 85.022 117.207 85.05zM123.637 85.917c-0.45-0.911-2.363-2.506-4.561-4.23C120.959 83.747 122.693 85.538 123.637 85.917zM119.076 81.688c-0.118-0.13-0.236-0.26-0.355-0.391 -0.021 0.022-0.041 0.044-0.061 0.065C118.8 81.471 118.941 81.58 119.076 81.688zM124.363 85.44c0.024-1.017-0.93-3.321-2.073-5.868C122.999 82.273 123.704 84.663 124.363 85.44zM122.29 79.572c-0.049-0.182-0.096-0.366-0.144-0.55 -0.029 0.01-0.062 0.021-0.09 0.032C122.134 79.227 122.214 79.401 122.29 79.572z" fill="url(#SvgjsRadialGradient4427)" opacity="1"/>
                    <path id="SvgjsPath4430" d="M128.334 87c0 1.842-1.492 3.333-3.333 3.333s-3.335-1.492-3.335-3.333c0-1.841 1.494-3.334 3.335-3.334C126.844 83.666 128.334 85.159 128.334 87z" fill="#4e60a3" stroke-width="none" opacity="1"/>
                    <path id="SvgjsPath4431" d="M128.334 87c0 1.842-1.492 3.333-3.333 3.333s-3.335-1.492-3.335-3.333c0-1.841 1.494-3.334 3.335-3.334C126.844 83.666 128.334 85.159 128.334 87z" fill="#000000" stroke-width="none" opacity="0.9"/>
                    <path id="SvgjsPath4432" d="M120.35 90.893c0.636-0.427 1.5-0.255 1.927 0.38 0.427 0.637 0.258 1.5-0.379 1.927 -0.638 0.429-1.5 0.258-1.927-0.378C119.544 92.185 119.713 91.32 120.35 90.893L120.35 90.893z" fill="url(#SvgjsLinearGradient4433)" opacity="0.5"/>
                    <path id="SvgjsPath4436" d="M127.635 86.536c-0.356 0.53-1.373 0.468-2.275-0.136 -0.903-0.605-1.346-1.526-0.991-2.055l0.001-0.001c0.354-0.53 1.372-0.469 2.274 0.137 0.903 0.604 1.346 1.524 0.992 2.054C127.635 86.536 127.635 86.536 127.635 86.536z" fill="url(#SvgjsLinearGradient4437)" opacity="0.5"/>
                    <path id="SvgjsPath4440" d="M131.682 85.121c-0.806 1.237-2.884 1.31-4.641 0.166 -1.756-1.145-2.527-3.075-1.722-4.311 0.806-1.235 2.884-1.31 4.641-0.166C131.715 81.956 132.485 83.887 131.682 85.121L131.682 85.121z" fill="url(#SvgjsLinearGradient4441)" opacity="0.75"/>
                  </g>
                </g>
              </g>
              <g id="svga-group-eyesfront-right">
                <path id="SvgjsPath4248" d="M125 62.999c-9.94 0-18 11.193-18 25.001 0 13.808 8.06 24.999 18 24.999S143 101.808 143 88C143 74.191 134.94 62.999 125 62.999zM135.204 91.829c-0.344 0.627-0.686 1.158-1.203 1.577 -0.932 0.491-3.628 1.137-11.361 0.277 -3.118-0.347-6.231-0.82-9.317-1.41 -1.175-0.425-1.913-2.129-1.775-2.992 6.643-6.044 13.22-9.136 22.428-9.178 2.622-0.012 5.333 3.179 1.11 11.888C135.124 91.939 135.165 91.882 135.204 91.829z" fill="#f3d4cf" stroke-width="none" opacity="1"/>
                <path id="SvgjsPath4249" d="M122.599 72.333c-9.699-0.042-17.574 6.177-17.598 13.892 -0.025 7.713 7.819 13.998 17.516 14.041 9.7 0.041 17.572-6.177 17.596-13.89C140.137 78.66 132.296 72.376 122.599 72.333zM135.204 91.829c-0.344 0.627-0.686 1.158-1.203 1.577 -0.932 0.491-3.628 1.137-11.361 0.277 -3.118-0.347-6.231-0.82-9.317-1.41 -1.175-0.425-1.913-2.129-1.775-2.992 6.643-6.044 13.22-9.136 22.428-9.178 2.622-0.012 5.333 3.179 1.11 11.888C135.124 91.939 135.165 91.882 135.204 91.829z" fill="url(#SvgjsRadialGradient4250)" opacity="1"/>
                <path id="SvgjsPath4254" d="M111.547 89.282c-0.138 0.863 0.601 2.567 1.775 2.992 3.086 0.59 6.199 1.063 9.317 1.41 7.733 0.859 10.43 0.213 11.361-0.277 0.518-0.419 0.859-0.95 1.203-1.577 -0.039 0.053-0.08 0.11-0.119 0.163 3.392-6.996 2.308-10.426 0.392-11.5 -0.685-0.148-1.378-0.271-2.079-0.373C124.493 80.287 118.048 83.366 111.547 89.282z" fill="url(#SvgjsRadialGradient4255)" opacity="1"/>
                <path id="SvgjsPath4258" d="M110.636 86.486c4.879-4.498 11.941-7.793 18.25-9.692 5.849-1.761 10.449-2.086 18.501-1.266 -6.934-0.149-12.094-0.277-18.777 1.841C122.267 79.379 116.028 82.54 110.636 86.486z" fill="#c5796d" stroke-width="none" opacity="1"/>
                <path id="SvgjsPath4259" d="M111.143 88.992c5.114-5.444 11.846-9.201 21.324-10.109 1.159-0.516 2.703-1.792 4.26-3.205l-2.088 2.608c2.808-1.142 5.151-2.509 8.785-4.61 -2.347 1.951-3.936 3.306-5.952 4.387 3.489-1.15 5.83-2.219 11.008-5.117 -3.202 2.358-4.824 3.851-6.61 4.595 2.331-0.27 2.982-0.161 7.131-1.154 -8.129 6.537-11.147 11.837-13.915 15.427 4.223-8.392 1.512-11.467-1.11-11.455 -9.269 0.041-15.87 3.055-22.559 8.956C110.988 89.691 110.751 89.407 111.143 88.992zM122.64 93.444c-3.218-0.345-6.429-0.813-9.61-1.407 -0.006 0.027-0.012 0.054-0.017 0.081 0 0.675 9.644 2.136 10.735 2.268 2.634 0.205 9.407 0.666 10.736-1.609C134.484 92.776 133.907 94.65 122.64 93.444z" fill="#000000" stroke-width="none" opacity="1"/>
              </g>
            </g>
          </g>
          <g id="svga-group-facehighlight-single">
            <path id="SvgjsPath2769" d="M140.204 113.007c0.035 22.275-17.995 40.365-40.273 40.396 -22.274 0.036-40.361-17.993-40.396-40.272C59.501 90.857 77.53 72.77 99.808 72.735 122.083 72.701 140.171 90.73 140.204 113.007z" fill="url(#SvgjsRadialGradient2770)" opacity="1"/>
            <path id="SvgjsPath2773" d="M135,55.999c0,19.329-15.671,35-35,35c-19.329,0-35-15.671-35-35s15.671-35,35-35C119.329,20.999,135,36.67,135,55.999z" fill="url(#SvgjsRadialGradient2774)" opacity="1"/>
          </g>
          <g id="svga-group-eyebrows-left-move" transform="matrix(1,0,0,1,0,0)">
            <g id="svga-group-eyebrows-left-rotate" transform="matrix(1,0,0,1,0,0)">
              <g id="svga-group-eyebrows-left" transform="matrix(1,0,0,1,0,0)">
                <path id="SvgjsPath4021" d="M54 73.189c9.954-9.974 16.761-4.714 30.589-2.063 0.845 0.162 6.32 0.337 5.31 2.268 -0.483 0.924-2.036 0.814-2.903 0.798C73.308 73.936 66.652 64.197 54 73.189z" fill="#2a232b" stroke-width="none" opacity="1"/>
              </g>
            </g>
          </g>
          <g id="svga-group-eyebrows-right-move" transform="matrix(1,0,0,1,0,0)">
            <g id="svga-group-eyebrows-right-rotate" transform="matrix(1,0,0,1,0,0)">
              <g id="svga-group-eyebrows-right" transform="matrix(1,0,0,1,0,0)">
                <path id="SvgjsPath4022" d="M144.519 73.494c-12.071-9.095-19.137 0.037-31.727 0.388 -4.076 0.116-3.813-2.101-2.078-2.451 2.014-0.407 2.563 0.033 8.451-1.382C130.507 67.324 136.346 64.828 144.519 73.494z" fill="#2a232b" stroke-width="none" opacity="1"/>
              </g>
            </g>
          </g>
          <g id="svga-group-nose-single-move" transform="matrix(1,0,0,1,0,0)">
            <g id="svga-group-nose-single" transform="matrix(1,0,0,1,0,0)">
              <path id="SvgjsPath2906" d="M92.281 116.235c-0.745 2.063 5.028 4.289 7.218 4.426 2.374 0.147 9.024-2.899 7.896-4.991 -1.185-2.197-5.63-0.286-7.547-0.286C97.94 115.384 93.276 113.479 92.281 116.235z" fill="#e4b3ab" stroke-width="none" opacity="1" stroke="none"/>
              <path id="SvgjsPath2907" d="M102.207 117.221c-0.243-0.522 1.194-1.333 1.748-1.493 0.777-0.226 2.505 0.238 2.438 0.831 -0.06 0.521-1.603-0.169-2.105-0.022C103.767 116.687 102.435 117.712 102.207 117.221zM95.214 116.742c0.706 0 1.753 0.457 1.945 0.057 0.229-0.479-1.56-1.065-2.086-1 -0.434 0.052-1.991 0.958-1.777 1.338C93.496 117.49 94.284 116.742 95.214 116.742z" fill="#c5796d" stroke-width="none" opacity="1" stroke="none"/>
              <path id="SvgjsPath2908" d="M99.857 113.479c0.669 0 1.807-0.637 1.978-1.9 0.754-5.575-0.521-20.246-1.978-20.246 -1.365 0-2.508 15.024-2.155 20.246C97.789 112.86 99.099 113.479 99.857 113.479" fill="#ffffff" stroke-width="none" opacity="0.2" stroke="none"/>
            </g>
          </g>
          <g id="svga-group-hair-front" transform="matrix(1,0,0,1,0,0)">
            <path id="SvgjsPath3953" d="M44.483 18.786v192.7h39.633c-0.985-7.894-2.345-15.114-3.827-18.896 -7.734-19.635-34.67-24.746-29.979-50.592l0.186-0.036c5.161 11.272 7.599 17.786 19.622 19.774 -16.696-13.644-13.473-26.335-11.147-42.457 1.357-9.407-1.612-16.768-3.584-24.324 2.337-6.986 3.574-13.578 4.833-21.104C71.469 6.622 121.799 9.658 136.22 52.964c9.121 27.391 1.487 36.087 12.741 53.306 0.534 12.012 3.037 24.947-11.378 41.925 -3.168 3.731-7.858 7.637-11.999 10.247 15.048-1.334 23.306-15.722 28.299-29.979l0.183 0.058c-6.601 55.459-31.788 30.36-34.347 82.965h41.151v-192.7H44.483z" fill="#2a232b" stroke-width="none" opacity="0.1"/>
            <path id="SvgjsPath3954" d="M84.239 24.512c0 0 13.507 2.744 15.441 8.394 -9.837-0.448-14.145-3.676-28.021 1.726C74.877 29.073 84.239 24.512 84.239 24.512zM116.354 23.835c0 0-14.886-0.596-16.673 9.07 9.837-0.448 15.855-4.834 29.83 1.466C127.59 28.832 116.354 23.835 116.354 23.835z" fill="#0c080c" stroke-width="none" opacity="1"/>
            <path id="SvgjsPath3955" d="M171.325 103.155c12.474-84.818-28.429-117.88-66.57-108.483C62.686-15.575 30.577 5.914 25.649 64.39c-0.889 20.541 1.352 36.037 1.709 39.729 -2.823 5.811-4.602 12.117-5.334 18.632 -2.28 1.989-4.366 3.558-6.692 5.203 1.216-0.168 3.034-0.383 6.451-1.384 -0.802 22.784 10.506 26.852 9.795 45.72 -0.663 12.739-0.707 13.817 1.769 22.173 6.55 22.107-3.539 20.229-0.849 47.579 31.104-1.338 46.501 4.047 119.532-0.472 1.616-0.101 12.444-0.799 16.533-0.559 -16.247-55.787 11.274-50.916 2.58-79.354C163.35 136.169 184.674 127.674 171.325 103.155zM120.349 232.486c0.313 3.851 0.855 8.563 1.039 9.658 -14.026 0.059-13.942-0.431-36.432-0.219 0.397-13.065 1.519-40.587-1.77-48.975 -8.064-20.475-33.709-27.085-35.086-49.86l0.195-0.036c5.38 11.757 9.681 16.499 22.217 18.573 -17.408-14.226-13.83-25.25-13.383-42.226 0.265-9.903-1.679-17.482-3.736-25.362 2.437-7.282 3.738-14.154 5.041-22.003 5.299-31.981 23.306-56.507 41.03-39.238 0.001-0.001 0.225-0.316 0.225-0.316 0.096 0.134 0.084 0.114 0.202 0.302 15.169-16.919 29.792-2.734 37.781 17.474 11.073 27.991 1.55 37.627 13.281 55.582 0.56 12.526 1.191 25.365-13.838 43.069 -3.304 3.889-7.355 7.003-11.67 9.727 15.688-1.395 25.436-14.789 30.639-29.654l0.191 0.059C141.093 186.96 112.813 144.06 120.349 232.486z" fill="#2a232b" stroke-width="none" opacity="1"/>
            <path id="SvgjsPath3956" d="M168.564 241.012c-4.089-0.24-14.917 0.458-16.533 0.559 -7.593 0.47-14.551 0.831-20.979 1.104 0.627-18.603-6.242-38.093 2.549-55.675 4.409-9.624 18.398-19 21.398-31 0.559-2.235 1.938-7.965 2.429-12.944 3.441 21.68-17.092 41.785-12.299 63.68 4.266-14.529 12.416-38.893 17.552-49.096 -0.563 16.096-1.812 20.566-1.289 30.668 4.13-9.095 7.526-16.68 5.584-38.498 0 0 2.598 6.715 4.168 11.848C179.839 190.096 152.317 185.225 168.564 241.012zM161.744 152.235c14.178-34.092-4.985-37.232-10.55-59.281C145.21 69.242 145.199 27.485 124 23c-10.773-2.279-19.332 1.04-24.926 9.434 0.13 0.122 0.26 0.239 0.39 0.366 0.001-0.001 0.225-0.316 0.225-0.316 0.096 0.134 0.084 0.114 0.202 0.302 15.169-16.919 29.792-2.734 37.781 17.474 11.073 27.991 1.55 37.627 13.281 55.582 2.666 23.645-7.074 41.159-25.508 52.796 15.263-7.068 28.199-18.51 30.174-46.749l0.398 0.199C161.471 119.218 164.952 140.731 161.744 152.235zM154.398 45c1.833 21.549 4.026 42.923 16.985 58.268 -0.021-0.038-0.038-0.074-0.059-0.112 0.178-1.207 0.604-4.451 0.76-5.638C166.309 90.678 160.708 78.757 159 66c-2.141-15.982 0.07-34.47-15.9-46C150.849 26.708 154.398 36 154.398 45zM69 18C44 33 50.146 61.473 44.146 84c-3.188 11.97-11.551 22.788-20.646 30.744 -0.609 2.384-1.069 4.813-1.377 7.277C60.299 97.473 45.24 48.478 61.199 30.666c11.568-12.911 25.383-17.769 38.489 1.817C96.415 16.706 79 13 69 18zM82.258 25.4c-7.133 1.456-14.761 9.231-18.923 16.342 -6.467 11.048-7.485 28.27-12.653 46.717 -4.4 15.707-13.998 30.571-33.68 39.249 26.759-5.687 35.423-30.752 36.391-33.667 2.437-7.282 3.738-14.154 5.041-22.003 5.26-31.746 23.042-56.139 40.64-39.604C93.415 26.512 90.127 23.793 82.258 25.4zM68.733 161.296c0.579 0.115 1.161 0.229 1.779 0.332 -17.408-14.226-14.13-25.25-13.683-42.226 0.255-9.563-1.65-17.359-3.626-24.951 -0.523 1.394-1.105 2.744-1.716 4.073C60.569 121.579 41.722 142.818 68.733 161.296zM146.702 161.628c9.171-9.346 13.167-29.969 11.369-43.484 -0.817 4.008-1.474 8.073-2.426 12.056 0.149-0.404 0.296-0.81 0.438-1.217l0.191 0.059c-15.183 57.919-43.463 15.019-35.927 103.445 0.313 3.851 0.855 8.563 1.039 9.658 -14.026 0.059-13.942-0.431-36.432-0.219 0.397-13.065 1.519-40.587-1.77-48.975 -7.75-19.678-44.052-31.323-33.378-62.632 -9.689 13.094-4.59 24.13 1.678 31.309 35.12 44.05 24.852 49.003 26.454 81.047 11.177 0.333 30.093 0.525 48.263-0.105C121.536 179.735 127.328 181.371 146.702 161.628zM39.184 142.011c-1.385-4.846 8.584-15.692 5.366-30.735C43.886 121.43 38.638 129.205 36 138c-3.999 33.884 27.286 39.376 14 74 0-13-2.667-19.437-7.667-31.437C42.333 196.563 49 207 41 223c0 0 2.761-11.765 0.26-17.418C32.879 180.272 39.439 170.276 33 154c-2.838-7.69-8.246-14.15-10.878-27.926 0.677 19.739 10.59 29.425 9.958 46.216 -0.663 12.739-1.207 13.817 1.268 22.173 6.55 22.107-3.539 20.229-0.849 47.579 12.221-0.525 22.025-0.014 33.847 0.527 2.261-24.406 5.03-40.444-7.662-60.172C51.814 171.72 37.453 160.703 39.184 142.011zM45 38c-4.149 20.744-5.556 42.857-18.478 58.357 0.366 3.807 0.713 6.488 0.837 7.762 -0.066 0.136-0.124 0.275-0.188 0.411C51.195 67.57 41.09 47.743 50 28c2-5 6.231-8.566 11-14C52.915 20.828 47 27 45 38zM166.623 102.836C155.162 84.076 155.692 61.634 148 38c-4.507-13.846-24.446-39.649-48.506-6.168 11.159-14.396 23.65-15.006 31.307-10.431 6.19 3.699 10.544 10.145 13.544 17.145 7.068 18.138 5.753 34.787 13.753 52.787 5 12 12.048 22.146 12.416 32.828 -0.332 4.575-3.198 15.689-4.698 19.253 0.479-1.376 6.27-12.165 6.27-18.4C172.085 118.144 170.466 109.127 166.623 102.836zM71.522 9.661c3.306-2.748 25.504-5.422 29.751 11.058C98.289 4.859 78.927 5.073 71.522 9.661zM135.429 8.581c3.49 2.642 2.081 1.447-0.513-0.514 -13.694-8.515-27.51-1.497-33.308 12.366C109.649 3.393 126.768 2.02 135.429 8.581zM147.768 15.763c-17.909-25.073-41.461-16.292-47.154-2.327C108.07-2.146 131.988-5.355 147.768 15.763zM47.118 21.915c-2.079 4.494 4.73-15.523 28.092-20.133 8.363-1.692 19.382-0.871 24.746 6.221C91.351-4.505 59.979-4.11 47.118 21.915zM134.716 12.859c1.24 0.864 2.13 1.626 2.078 1.583 -0.177-0.117-1.063-1.067-2.619-2.098 -11.543-7.674-29.75 1.124-33.899 15.082C105.102 13.747 123.645 5.512 134.716 12.859zM65.39 15.566c-3.443 2.883 4.383-2.277 6.732-2.839 8.25-2.126 24.014-0.522 28.82 11.981C96.429 10.93 77.129 7.13 65.39 15.566z" fill="#1b141c" stroke-width="none" opacity="1"/>
            <path id="SvgjsPath3957" d="M54.287 8.395c-6.063 5.795-8.245 8.121-12.733 15.896C29.969 42.645 29.465 95.483 30.12 75.647 31.003 46.753 33.226 26.926 54.287 8.395zM40.166 46.282c-1.19 10.81 2.133-9.666 3.979-14.112C51.075 15.805 71.717-1.981 91.025 6.798c3.802 1.736 6.471 3.731 7.692 4.555C71.922-9.195 43.586 15.053 40.166 46.282zM140.025 11.352c4.61 4.55 8.293 8.722 8.248 8.671 -3.867-3.539-21.245-34.352-47.079-3.221C113.365 3.41 126.815-1.016 140.025 11.352zM91.268 18.114c5.95 4.151 11.459 11.672 10.709 10.672 -0.251-0.291-1.608-2.192-3.735-4.794C75.559-3.612 50 28.843 47.748 53.002 51.44 28.64 73.278 5.713 91.268 18.114zM148.446 35.102c0.914 2.425 1.39 3.932 1.306 3.63 -0.112-0.292-0.599-2.129-1.518-4.706 -7.781-22.254-29.125-27.144-48.288-4.222C119.501 8.442 139.361 12.269 148.446 35.102zM170.729 89.177c-0.008-0.391 0.217-2.754 0.27-6.182 0.46-22.099-4.53-58.257-22.219-71.904C171.765 31.294 170.628 90.434 170.729 89.177zM160.594 109.636c1.141 1.432 1.838 2.295 1.702 2.122 -6.983-11.994-4.544 1.486-14.992-43.759C151.208 88.03 150.813 97.418 160.594 109.636zM40.224 110.197c-3.71 3.778-2.039 2.239 0.691-0.536C55.243 92.089 52.19 85.149 56.037 63.719 52.939 77.874 52.532 97.469 40.224 110.197zM80.217 24.943c1.441-0.43 2.318-0.692 2.144-0.644 -4.026 1.411-20.332 4.076-24.18 27.199C61.569 36.735 70.158 28.113 80.217 24.943zM143.451 47.042c2.782 8.476-1.829-8.357-4.675-13.598 -5.338-10.289-12.488-12.038-23.153-11.645C133.024 21.025 137.857 30.72 143.451 47.042zM34.274 152.301c2.071 11.298 11.409 25.639 15.081 38.07 1.789 5.938 1.875 6.194-0.112-1.306 -11.232-35.413-21.715-39.51-10.232-69.374C39.011 119.691 30.189 136.554 34.274 152.301zM148.784 189.284c-0.385 2.617-0.607 4.203-0.555 3.89 9.005-39.146 13.987-26.598 11.758-65.936C160.009 171.216 154.996 151.983 148.784 189.284zM46.041 133.496c-8.804 20.717 5.362 28.95 22.507 53.013 3.892 6.425 2.585 4.246 1.648 2.489 -11.499-21.461-31.094-34.2-23.91-53.677 2.383-6.427 3.979-9.329 3.182-22.331C49.611 121.966 49.23 125.986 46.041 133.496zM52.428 119.592c-0.092 12.744-6.549 21.745 6.856 35.309 4.074 3.177-2.931-3.353-4.056-5.359 -2.187-3.878-3.819-8.571-3.37-13.059 0.683-13.909 1.296-1.389 0.912-29.999C52.413 116.792 52.728 110.031 52.428 119.592zM142.67 147.298c-1.671 2.148-4.705 4.313-5.604 6.149 -0.214 0.387 0.542-0.853 1.744-1.979 17.557-16.844 13.72-27.795 16.996-34.761C152.473 123.786 154.94 131.114 142.67 147.298zM126.529 187.542c-2.762 11.25-1.063 15.187-1.063 15.187 -0.185-1-0.322-1.582-0.322-3.37 2.057-31.334 25.247-25.986 31.597-60.146C151.157 167.077 131.887 167.036 126.529 187.542z" fill="#3a353a" stroke-width="none" opacity="1"/>
            <path id="SvgjsPath3958" d="M171.429 103.136c12.069-85.836-28.95-117.955-66.649-108.561 -63.629-15.205-85.202 40.694-77.51 109.5 -2.854 5.875-4.629 12.232-5.31 18.601 -2.671 2.329-6.03 4.794-7.03 5.43 2.281-0.256 4.492-0.737 6.75-1.4 -0.454 12.987 3.396 20.927 6.94 29.32 6.294 14.887 0.154 21.277 3.39 34.07 1.24 4.85 3.11 9.63 3.55 14.64 0.946 10.766-5.545 16.426-3.15 37.41 0.08 0 0.15-0.01 0.23-0.01 24.692-0.967 13.033-0.165 29.72 0.439 62.103 2.413 88.897-1.46 106.34-1.46 -12.259-39.767-0.309-49.433 3.61-63.05 3.343-11.656-3.539-17.892-3.11-27.43C170.279 131.121 182.242 124.247 171.429 103.136zM69.579 161.266c-11.588-2.079-16.382-8.37-21.42-19.061 -0.284-5.823 1.921-12.104 2.96-17.87 1.044-5.75 0.401-10.896-0.69-22.729 1.12-2.35 2.09-4.77 2.94-7.24 1.57 6.54 3.01 13.15 3.04 19.83C56.463 128.817 50.079 147.932 69.579 161.266zM21.699 126.226c-1.71 0.529-3.46 0.96-5.23 1.27 41.837-27.209 31.729-67.088 39.07-85.77 7.243-18.434 27.63-33.995 44.1-9.15 -0.06 0.08-0.109 0.15-0.16 0.23 -17.355-18.325-36.108 8.93-40.729 31.36 -4.49 21.877-6.914 51.458-35.12 61.41C23.629 125.575 21.699 126.205 21.699 126.226zM32.619 241.855c-0.543-9.458-0.846-11.33 0.73-18.64 1.28-5.961 3.59-12.12 3.23-18.271 -0.39-6.41-3.11-12.39-3.89-18.74 -0.75-6.14 0.5-12.31 0.53-18.46 0.082-12.213-10.172-20.935-9.61-41.63 8.104-2.688 15.358-7.616 20.94-14.84 0.917 21.249-5.573 19.928-6.48 31.84 -1.511 20.052 22.174 35.669 27.74 56.09 1.939 7.062 2.03 35.213 1.99 42.561C42.492 241.322 58.322 240.284 32.619 241.855zM67.999 241.766c1.762-47.609-0.21-49.127-16.54-70.601 -22.601-29.594-7.548-34.703-6.54-50.26 0.21-3.27 0-6.56-0.21-9.84 2.15-2.82 3.97-5.86 5.51-9.05 0.795 13.27 0.928 13.425 0.83 15.92 -0.627 17.156-14.775 28.272 12.29 53.859 21.941 20.76 20.976 18.661 21.51 70.03C79.229 241.865 73.609 241.865 67.999 241.766zM85.059 241.825c0.35-11.354 1.576-40.352-1.78-48.91 -8.071-20.492-33.704-27.098-35.08-49.83 0.323 1 3.402 7.811 6.93 11.45 4.472 4.623 9.446 6.313 15.75 7.25 -17.932-13.084-14.028-28.113-13.65-42.38 0.263-9.843-1.635-17.335-3.74-25.39 4.287-12.413 4.894-24.4 7.4-33.84 5.711-21.558 22.336-43.879 38.589-27.22 0.006-0.017 0.2-0.286 0.21-0.3 0.008 0.011 0.188 0.291 0.19 0.3 13.404-16.837 29.143-4.305 37.7 17.34 11.029 27.882 1.583 37.684 13.29 55.6 0.491 11.79 1.402 25.005-13.83 42.95 -3.366 3.96-8.398 7.835-12 9.92 15.66-0.846 25.939-14.893 31.14-29.75 -15.514 57.917-43.439 15.318-35.93 103.479 0.343 4.205 0.894 8.792 1.021 9.55C109.791 242.117 111.782 241.719 85.059 241.825zM163.389 147.476c7.729-35.545-14.471-31.226-17.31-59.59 -0.996-10.411-0.63-29.001-12.86-48.65 -8.754-14.108-21.634-20.468-33.27-6.5 -0.04-0.08-0.09-0.16-0.141-0.24 15.769-21.402 42.415-19.527 49.341 26.27 4.381 29.034 5.438 27.162 15.17 47.38C168.679 115.133 174.634 126.9 163.389 147.476zM151.329 106.596c2.058 3.087 4.326 5.995 6.521 9.05 0 16.35-13.219 39.914-30.75 42.47 2.52-1.54 4.96-3.229 7.09-5.25C150.003 137.833 152.699 124.613 151.329 106.596zM167.939 156.695c1.3 5.5 3.699 10.57 3.729 16.32 -1.432 16.422-17.601 23.629-3.31 67.67 -9.831-0.523-19.654 0.533-37.141 1.149 -0.459-25.169-2.177-31.864-0.949-42.59 2.851-25.063 24.016-23.109 27.159-56.189 -4.017 34.862-28.503 30.377-29.029 61.109 -0.033 2.001 2.4 37.353 2.43 37.681 -2.771 0.093-6.599 0.199-9.37 0.199 -7.985-81.762 13.702-65.904 27.891-91.109 4.94-8.745 8.701-22.552 8.76-34.92 8.21 11.655 7.685 17.531 4.77 32.819 5.384-8.491 9.791-22.53 6.51-32.88 -1.094-4.394-4.797-11.869-6.25-14.88 -10.84-22.439-8.965-23.64-13-45.33 -7.404-40.292-33.264-47.161-50.39-23.33 -17.552-27.954-45.346-8.197-49.08 25.4 -1.354 12.346-0.255 38.468-26.65 63.02 1.906-14.99 8.729-22.372 13.75-34.22 12.649-29.735 1.814-50.492 18.65-67.33C38.122 37.494 51 59.408 34.099 91.476c-1.94 3.67-4.1 7.24-6 10.939 -5.854-64.179 16.384-121.011 75.59-107.03 40.783-10.329 64.18 25.442 67.6 67.79 1.471 18.212-0.248 34.59-0.54 38.77 -2.87-4.89-6.31-9.47-8.34-14.81 -11.876-31.337-1.556-52.06-19.32-67.28 18.119 16.345 6.485 41.9 19.79 71.61 2.613 4.897 5.803 9.391 8.16 14.36C180.63 126.046 163.44 137.618 167.939 156.695z" fill="#000000" stroke-width="none" opacity="1"/>
          </g>
          <g id="svga-group-glasses-single-move" transform="matrix(1,0,0,1,0,3)">
            <g id="svga-group-glasses-single" transform="matrix(0.8499995000000001,0,0,0.8499995000000001,15.000970108047468,12.897536735542289)">
              <path id="SvgjsPath4026" d="M100,18.13L100,18.13L100,18.13L100,18.13z" fill="#26120b" stroke-width="none" opacity="1"/>
            </g>
          </g>
        </g>
      </g>
    </g>
  </g>
</svg>
